G04 EAGLE Gerber X2 export*
%TF.Part,Single*%
%TF.FileFunction,Soldermask,Top*%
%TF.FilePolarity,Negative*%
%TF.GenerationSoftware,Autodesk,EAGLE,9.0.1*%
%TF.CreationDate,2018-11-30T19:34:43Z*%
G75*
%MOIN*%
%FSLAX36Y36*%
%LPD*%
%AMOC8*
5,1,8,0,0,1.08239X$1,22.5*%
G01*
%ADD10C,0.130047*%
%ADD11R,0.094000X0.094000*%
%ADD12C,0.094000*%
%ADD13C,0.060000*%
%ADD14C,0.082000*%
%ADD15C,0.074000*%
%ADD16P,0.076850X8X292.500000*%
%ADD17P,0.076850X8X22.500000*%
%ADD18R,0.059181X0.067055*%
%ADD19R,0.067055X0.059181*%


D10*
X2310000Y2050000D03*
X90000Y2040000D03*
X2310000Y90000D03*
X90000Y90000D03*
D11*
X671000Y1765000D03*
D12*
X811000Y1765000D03*
D11*
X324000Y1470000D03*
D12*
X464000Y1470000D03*
D11*
X914000Y1470000D03*
D12*
X1054000Y1470000D03*
D11*
X579000Y1245000D03*
D12*
X719000Y1245000D03*
D11*
X244000Y1020000D03*
D12*
X384000Y1020000D03*
D11*
X834000Y1020000D03*
D12*
X974000Y1020000D03*
D11*
X487000Y725000D03*
D12*
X627000Y725000D03*
D11*
X1871000Y1765000D03*
D12*
X2011000Y1765000D03*
D11*
X1524000Y1470000D03*
D12*
X1664000Y1470000D03*
D11*
X2114000Y1470000D03*
D12*
X2254000Y1470000D03*
D11*
X1779000Y1245000D03*
D12*
X1919000Y1245000D03*
D11*
X1444000Y1020000D03*
D12*
X1584000Y1020000D03*
D11*
X2034000Y1020000D03*
D12*
X2174000Y1020000D03*
D11*
X1687000Y725000D03*
D12*
X1827000Y725000D03*
D13*
X730000Y96000D02*
X730000Y44000D01*
X630000Y44000D02*
X630000Y96000D01*
X530000Y96000D02*
X530000Y44000D01*
X430000Y44000D02*
X430000Y96000D01*
X330000Y96000D02*
X330000Y44000D01*
D14*
X72000Y1171000D03*
X328000Y1171000D03*
X72000Y1349000D03*
X328000Y1349000D03*
D15*
X1310000Y180000D03*
X1410000Y180000D03*
X1510000Y180000D03*
D16*
X130000Y1730000D03*
X130000Y1530000D03*
D17*
X1634488Y2070000D03*
X1834488Y2070000D03*
D15*
X1010000Y180000D03*
X1110000Y180000D03*
X1210000Y180000D03*
X1260000Y880000D03*
X1260000Y780000D03*
X1260000Y680000D03*
D18*
X1923465Y1530000D03*
X1856535Y1530000D03*
D19*
X1370000Y1856535D03*
X1370000Y1923465D03*
D18*
X996535Y1740000D03*
X1063465Y1740000D03*
X666535Y1520000D03*
X733465Y1520000D03*
X1766535Y990000D03*
X1833465Y990000D03*
X1846535Y400000D03*
X1913465Y400000D03*
X926535Y580000D03*
X993465Y580000D03*
X566535Y1010000D03*
X633465Y1010000D03*
M02*
