M48
;GenerationSoftware,Autodesk,EAGLE,9.0.1*%
;CreationDate,2018-11-30T19:34:42Z*%
FMAT,2
ICI,OFF
INCH,TZ,00.0000
T4C0.0138
T3C0.0320
T2C0.0400
T1C0.0550
%
G90
M72
T1
X7190Y12450
X18270Y7250
X6710Y17650
X8110Y17650
X3240Y14700
X4640Y14700
X9140Y14700
X10540Y14700
X5790Y12450
X2440Y10200
X3840Y10200
X8340Y10200
X9740Y10200
X4870Y7250
X6270Y7250
X18710Y17650
X20110Y17650
X15240Y14700
X16640Y14700
X21140Y14700
X22540Y14700
X17790Y12450
X19190Y12450
X14440Y10200
X15840Y10200
X20340Y10200
X21740Y10200
X16870Y7250
T2
X3280Y13490
X720Y11710
X3280Y11710
X720Y13490
X13100Y1800
X14100Y1800
X15100Y1800
X12600Y6800
X10100Y1800
X11100Y1800
X12100Y1800
X12600Y8800
X12600Y7800
T3
X7300Y700
X6300Y700
X5300Y700
X4300Y700
X3300Y700
X1300Y17300
X1300Y15300
X16345Y20700
X18345Y20700
T4
X10394Y3228
X11339Y5827
X11890Y9134
X12283Y10000
X12913Y17559
X7953Y15197
X10551Y2913
X11024Y6063
X11102Y8976
X12520Y10472
X13465Y17402
X12800Y19700
X11000Y16600
X19500Y3200
X10400Y5000
X6700Y9300
X18700Y9100
X6300Y14400
X4252Y1496
X18200Y14500
X8583Y1417
X8189Y1417
X8583Y1024
X8189Y1024
X12047Y17795
X315Y5197
X1732Y8110
X2047Y6535
X19055Y2283
X2126Y6929
X18504Y3386
X17874Y5906
X19764Y5906
X18800Y5000
X9700Y6800
X18000Y10900
X6000Y11100
X7000Y16200
X10300Y18400
X18900Y16300
X14700Y18900
X23465Y5827
X1496Y6772
X1575Y7165
X5197Y4724
X3150Y7165
X4488Y1969
X10000Y8898
X10551Y3622
X12205Y5512
X3543Y2047
X10551Y4016
X11969Y5827
X9921Y7953
X14409Y11890
X16299Y13150
X9606Y7717
X9685Y8661
X14724Y11496
X16614Y12835
X3780Y1417
M30