G04 EAGLE Gerber X2 export*
%TF.Part,Single*%
%TF.FileFunction,Legend,Top,1*%
%TF.FilePolarity,Positive*%
%TF.GenerationSoftware,Autodesk,EAGLE,9.0.1*%
%TF.CreationDate,2018-11-30T19:34:43Z*%
G75*
%MOIN*%
%FSLAX36Y36*%
%LPD*%
%AMOC8*
5,1,8,0,0,1.08239X$1,22.5*%
G01*
%ADD10C,0.003000*%
%ADD11C,0.006000*%
%ADD12C,0.005000*%
%ADD13R,0.007874X0.007874*%
%ADD14R,0.086614X0.007874*%
%ADD15R,0.007874X0.086614*%
%ADD16R,0.023622X0.007874*%
%ADD17R,0.007874X0.015748*%
%ADD18R,0.015748X0.007874*%
%ADD19R,0.031496X0.007874*%
%ADD20R,0.007874X0.023622*%
%ADD21C,0.004000*%


D10*
X231500Y1931500D02*
X231500Y1968500D01*
X241778Y1968500D01*
X242026Y1968497D01*
X242275Y1968488D01*
X242522Y1968473D01*
X242770Y1968452D01*
X243017Y1968425D01*
X243263Y1968392D01*
X243508Y1968353D01*
X243753Y1968309D01*
X243996Y1968258D01*
X244238Y1968201D01*
X244478Y1968139D01*
X244717Y1968071D01*
X244954Y1967997D01*
X245189Y1967917D01*
X245423Y1967832D01*
X245654Y1967741D01*
X245883Y1967645D01*
X246109Y1967543D01*
X246333Y1967435D01*
X246554Y1967323D01*
X246773Y1967205D01*
X246989Y1967081D01*
X247201Y1966953D01*
X247410Y1966819D01*
X247617Y1966681D01*
X247819Y1966537D01*
X248018Y1966389D01*
X248214Y1966235D01*
X248406Y1966078D01*
X248594Y1965915D01*
X248777Y1965748D01*
X248957Y1965577D01*
X249133Y1965401D01*
X249304Y1965221D01*
X249471Y1965038D01*
X249634Y1964850D01*
X249791Y1964658D01*
X249945Y1964462D01*
X250093Y1964263D01*
X250237Y1964061D01*
X250375Y1963854D01*
X250509Y1963645D01*
X250637Y1963433D01*
X250761Y1963217D01*
X250879Y1962998D01*
X250991Y1962777D01*
X251099Y1962553D01*
X251201Y1962327D01*
X251297Y1962098D01*
X251388Y1961867D01*
X251473Y1961633D01*
X251553Y1961398D01*
X251627Y1961161D01*
X251695Y1960922D01*
X251757Y1960682D01*
X251814Y1960440D01*
X251865Y1960197D01*
X251909Y1959952D01*
X251948Y1959707D01*
X251981Y1959461D01*
X252008Y1959214D01*
X252029Y1958966D01*
X252044Y1958719D01*
X252053Y1958470D01*
X252056Y1958222D01*
X252055Y1958222D02*
X252055Y1941778D01*
X252056Y1941778D02*
X252053Y1941530D01*
X252044Y1941281D01*
X252029Y1941034D01*
X252008Y1940786D01*
X251981Y1940539D01*
X251948Y1940293D01*
X251909Y1940048D01*
X251865Y1939803D01*
X251814Y1939560D01*
X251757Y1939318D01*
X251695Y1939078D01*
X251627Y1938839D01*
X251553Y1938602D01*
X251473Y1938367D01*
X251388Y1938133D01*
X251297Y1937902D01*
X251201Y1937673D01*
X251099Y1937447D01*
X250991Y1937223D01*
X250879Y1937002D01*
X250761Y1936783D01*
X250637Y1936567D01*
X250509Y1936355D01*
X250375Y1936145D01*
X250237Y1935939D01*
X250093Y1935737D01*
X249945Y1935538D01*
X249791Y1935342D01*
X249634Y1935150D01*
X249471Y1934962D01*
X249304Y1934778D01*
X249133Y1934599D01*
X248957Y1934423D01*
X248777Y1934252D01*
X248594Y1934085D01*
X248406Y1933922D01*
X248214Y1933764D01*
X248018Y1933611D01*
X247819Y1933463D01*
X247617Y1933319D01*
X247410Y1933181D01*
X247201Y1933047D01*
X246988Y1932919D01*
X246773Y1932795D01*
X246554Y1932677D01*
X246333Y1932564D01*
X246109Y1932457D01*
X245883Y1932355D01*
X245654Y1932259D01*
X245423Y1932168D01*
X245189Y1932083D01*
X244954Y1932003D01*
X244717Y1931929D01*
X244478Y1931861D01*
X244238Y1931799D01*
X243996Y1931742D01*
X243753Y1931691D01*
X243508Y1931647D01*
X243263Y1931608D01*
X243017Y1931575D01*
X242770Y1931548D01*
X242522Y1931527D01*
X242274Y1931512D01*
X242026Y1931503D01*
X241778Y1931500D01*
X231500Y1931500D01*
X268700Y1960278D02*
X278978Y1968500D01*
X278978Y1931500D01*
X289255Y1931500D02*
X268700Y1931500D01*
X1431500Y1931500D02*
X1431500Y1968500D01*
X1441778Y1968500D01*
X1442026Y1968497D01*
X1442275Y1968488D01*
X1442522Y1968473D01*
X1442770Y1968452D01*
X1443017Y1968425D01*
X1443263Y1968392D01*
X1443508Y1968353D01*
X1443753Y1968309D01*
X1443996Y1968258D01*
X1444238Y1968201D01*
X1444478Y1968139D01*
X1444717Y1968071D01*
X1444954Y1967997D01*
X1445189Y1967917D01*
X1445423Y1967832D01*
X1445654Y1967741D01*
X1445883Y1967645D01*
X1446109Y1967543D01*
X1446333Y1967435D01*
X1446554Y1967323D01*
X1446773Y1967205D01*
X1446989Y1967081D01*
X1447201Y1966953D01*
X1447410Y1966819D01*
X1447617Y1966681D01*
X1447819Y1966537D01*
X1448018Y1966389D01*
X1448214Y1966235D01*
X1448406Y1966078D01*
X1448594Y1965915D01*
X1448777Y1965748D01*
X1448957Y1965577D01*
X1449133Y1965401D01*
X1449304Y1965221D01*
X1449471Y1965038D01*
X1449634Y1964850D01*
X1449791Y1964658D01*
X1449945Y1964462D01*
X1450093Y1964263D01*
X1450237Y1964061D01*
X1450375Y1963854D01*
X1450509Y1963645D01*
X1450637Y1963433D01*
X1450761Y1963217D01*
X1450879Y1962998D01*
X1450991Y1962777D01*
X1451099Y1962553D01*
X1451201Y1962327D01*
X1451297Y1962098D01*
X1451388Y1961867D01*
X1451473Y1961633D01*
X1451553Y1961398D01*
X1451627Y1961161D01*
X1451695Y1960922D01*
X1451757Y1960682D01*
X1451814Y1960440D01*
X1451865Y1960197D01*
X1451909Y1959952D01*
X1451948Y1959707D01*
X1451981Y1959461D01*
X1452008Y1959214D01*
X1452029Y1958966D01*
X1452044Y1958719D01*
X1452053Y1958470D01*
X1452056Y1958222D01*
X1452055Y1958222D02*
X1452055Y1941778D01*
X1452056Y1941778D02*
X1452053Y1941530D01*
X1452044Y1941281D01*
X1452029Y1941034D01*
X1452008Y1940786D01*
X1451981Y1940539D01*
X1451948Y1940293D01*
X1451909Y1940048D01*
X1451865Y1939803D01*
X1451814Y1939560D01*
X1451757Y1939318D01*
X1451695Y1939078D01*
X1451627Y1938839D01*
X1451553Y1938602D01*
X1451473Y1938367D01*
X1451388Y1938133D01*
X1451297Y1937902D01*
X1451201Y1937673D01*
X1451099Y1937447D01*
X1450991Y1937223D01*
X1450879Y1937002D01*
X1450761Y1936783D01*
X1450637Y1936567D01*
X1450509Y1936355D01*
X1450375Y1936145D01*
X1450237Y1935939D01*
X1450093Y1935737D01*
X1449945Y1935538D01*
X1449791Y1935342D01*
X1449634Y1935150D01*
X1449471Y1934962D01*
X1449304Y1934778D01*
X1449133Y1934599D01*
X1448957Y1934423D01*
X1448777Y1934252D01*
X1448594Y1934085D01*
X1448406Y1933922D01*
X1448214Y1933764D01*
X1448018Y1933611D01*
X1447819Y1933463D01*
X1447617Y1933319D01*
X1447410Y1933181D01*
X1447201Y1933047D01*
X1446988Y1932919D01*
X1446773Y1932795D01*
X1446554Y1932677D01*
X1446333Y1932564D01*
X1446109Y1932457D01*
X1445883Y1932355D01*
X1445654Y1932259D01*
X1445423Y1932168D01*
X1445189Y1932083D01*
X1444954Y1932003D01*
X1444717Y1931929D01*
X1444478Y1931861D01*
X1444238Y1931799D01*
X1443996Y1931742D01*
X1443753Y1931691D01*
X1443508Y1931647D01*
X1443263Y1931608D01*
X1443017Y1931575D01*
X1442770Y1931548D01*
X1442522Y1931527D01*
X1442274Y1931512D01*
X1442026Y1931503D01*
X1441778Y1931500D01*
X1431500Y1931500D01*
X1480005Y1968500D02*
X1480229Y1968497D01*
X1480452Y1968489D01*
X1480675Y1968476D01*
X1480898Y1968457D01*
X1481120Y1968433D01*
X1481342Y1968403D01*
X1481562Y1968368D01*
X1481782Y1968328D01*
X1482001Y1968282D01*
X1482219Y1968231D01*
X1482435Y1968175D01*
X1482650Y1968114D01*
X1482863Y1968047D01*
X1483075Y1967976D01*
X1483285Y1967899D01*
X1483493Y1967817D01*
X1483699Y1967730D01*
X1483903Y1967639D01*
X1484105Y1967542D01*
X1484304Y1967440D01*
X1484500Y1967334D01*
X1484694Y1967223D01*
X1484886Y1967108D01*
X1485074Y1966987D01*
X1485260Y1966863D01*
X1485442Y1966733D01*
X1485621Y1966600D01*
X1485797Y1966462D01*
X1485970Y1966320D01*
X1486139Y1966174D01*
X1486304Y1966023D01*
X1486466Y1965869D01*
X1486624Y1965711D01*
X1486778Y1965549D01*
X1486929Y1965384D01*
X1487075Y1965215D01*
X1487217Y1965042D01*
X1487355Y1964866D01*
X1487488Y1964687D01*
X1487618Y1964505D01*
X1487742Y1964319D01*
X1487863Y1964131D01*
X1487978Y1963939D01*
X1488089Y1963745D01*
X1488195Y1963549D01*
X1488297Y1963350D01*
X1488394Y1963148D01*
X1488485Y1962944D01*
X1488572Y1962738D01*
X1488654Y1962530D01*
X1488731Y1962320D01*
X1488802Y1962108D01*
X1488869Y1961895D01*
X1488930Y1961680D01*
X1488986Y1961464D01*
X1489037Y1961246D01*
X1489083Y1961027D01*
X1489123Y1960807D01*
X1489158Y1960587D01*
X1489188Y1960365D01*
X1489212Y1960143D01*
X1489231Y1959920D01*
X1489244Y1959697D01*
X1489252Y1959474D01*
X1489255Y1959250D01*
X1480005Y1968500D02*
X1479718Y1968497D01*
X1479430Y1968486D01*
X1479144Y1968469D01*
X1478857Y1968444D01*
X1478571Y1968413D01*
X1478287Y1968375D01*
X1478003Y1968330D01*
X1477720Y1968278D01*
X1477439Y1968220D01*
X1477159Y1968154D01*
X1476881Y1968082D01*
X1476604Y1968003D01*
X1476330Y1967917D01*
X1476058Y1967825D01*
X1475788Y1967727D01*
X1475520Y1967621D01*
X1475256Y1967510D01*
X1474993Y1967392D01*
X1474734Y1967267D01*
X1474478Y1967137D01*
X1474226Y1967000D01*
X1473976Y1966857D01*
X1473730Y1966708D01*
X1473488Y1966554D01*
X1473250Y1966393D01*
X1473015Y1966227D01*
X1472785Y1966055D01*
X1472559Y1965878D01*
X1472337Y1965695D01*
X1472120Y1965507D01*
X1471907Y1965314D01*
X1471699Y1965115D01*
X1471496Y1964912D01*
X1471298Y1964704D01*
X1471105Y1964491D01*
X1470917Y1964273D01*
X1470734Y1964051D01*
X1470557Y1963825D01*
X1470386Y1963594D01*
X1470220Y1963360D01*
X1470059Y1963121D01*
X1469905Y1962879D01*
X1469757Y1962633D01*
X1469614Y1962383D01*
X1469478Y1962130D01*
X1469347Y1961874D01*
X1469223Y1961615D01*
X1469106Y1961352D01*
X1468994Y1961087D01*
X1468889Y1960820D01*
X1468791Y1960550D01*
X1468699Y1960278D01*
X1486173Y1952055D02*
X1486347Y1952225D01*
X1486517Y1952400D01*
X1486683Y1952579D01*
X1486845Y1952761D01*
X1487002Y1952948D01*
X1487154Y1953138D01*
X1487302Y1953332D01*
X1487444Y1953530D01*
X1487582Y1953731D01*
X1487715Y1953935D01*
X1487843Y1954143D01*
X1487966Y1954354D01*
X1488083Y1954567D01*
X1488196Y1954784D01*
X1488302Y1955003D01*
X1488404Y1955224D01*
X1488500Y1955449D01*
X1488591Y1955675D01*
X1488675Y1955903D01*
X1488755Y1956134D01*
X1488828Y1956366D01*
X1488896Y1956601D01*
X1488958Y1956836D01*
X1489015Y1957074D01*
X1489065Y1957312D01*
X1489110Y1957552D01*
X1489149Y1957792D01*
X1489181Y1958034D01*
X1489208Y1958276D01*
X1489229Y1958519D01*
X1489244Y1958763D01*
X1489253Y1959006D01*
X1489256Y1959250D01*
X1486172Y1952055D02*
X1468700Y1931500D01*
X1489255Y1931500D01*
X1211500Y128500D02*
X1211500Y91500D01*
X1211500Y128500D02*
X1221778Y128500D01*
X1222028Y128497D01*
X1222278Y128488D01*
X1222528Y128473D01*
X1222778Y128451D01*
X1223026Y128424D01*
X1223274Y128390D01*
X1223522Y128351D01*
X1223768Y128306D01*
X1224013Y128254D01*
X1224256Y128197D01*
X1224499Y128133D01*
X1224739Y128064D01*
X1224978Y127989D01*
X1225215Y127908D01*
X1225450Y127822D01*
X1225682Y127730D01*
X1225913Y127632D01*
X1226141Y127528D01*
X1226366Y127419D01*
X1226588Y127305D01*
X1226808Y127185D01*
X1227025Y127060D01*
X1227239Y126929D01*
X1227449Y126794D01*
X1227656Y126653D01*
X1227860Y126508D01*
X1228060Y126357D01*
X1228256Y126202D01*
X1228448Y126042D01*
X1228637Y125877D01*
X1228821Y125707D01*
X1229001Y125534D01*
X1229177Y125356D01*
X1229349Y125173D01*
X1229516Y124987D01*
X1229678Y124797D01*
X1229836Y124602D01*
X1229989Y124404D01*
X1230137Y124202D01*
X1230280Y123997D01*
X1230418Y123788D01*
X1230551Y123576D01*
X1230679Y123361D01*
X1230802Y123143D01*
X1230919Y122922D01*
X1231030Y122698D01*
X1231137Y122471D01*
X1231237Y122242D01*
X1231332Y122010D01*
X1231422Y121776D01*
X1231506Y121541D01*
X1231583Y121303D01*
X1231656Y121063D01*
X1231722Y120822D01*
X1231782Y120579D01*
X1231837Y120334D01*
X1231885Y120089D01*
X1231927Y119842D01*
X1231964Y119595D01*
X1231994Y119346D01*
X1232019Y119097D01*
X1232037Y118847D01*
X1232049Y118597D01*
X1232055Y118347D01*
X1232055Y118097D01*
X1232049Y117847D01*
X1232037Y117597D01*
X1232019Y117347D01*
X1231994Y117098D01*
X1231964Y116849D01*
X1231927Y116602D01*
X1231885Y116355D01*
X1231837Y116110D01*
X1231782Y115865D01*
X1231722Y115622D01*
X1231656Y115381D01*
X1231583Y115141D01*
X1231506Y114903D01*
X1231422Y114668D01*
X1231332Y114434D01*
X1231237Y114202D01*
X1231137Y113973D01*
X1231030Y113746D01*
X1230919Y113522D01*
X1230802Y113301D01*
X1230679Y113083D01*
X1230551Y112868D01*
X1230418Y112656D01*
X1230280Y112447D01*
X1230137Y112242D01*
X1229989Y112040D01*
X1229836Y111842D01*
X1229678Y111647D01*
X1229516Y111457D01*
X1229349Y111271D01*
X1229177Y111088D01*
X1229001Y110910D01*
X1228821Y110737D01*
X1228637Y110567D01*
X1228448Y110402D01*
X1228256Y110242D01*
X1228060Y110087D01*
X1227860Y109936D01*
X1227656Y109791D01*
X1227449Y109650D01*
X1227239Y109515D01*
X1227025Y109384D01*
X1226808Y109259D01*
X1226588Y109139D01*
X1226366Y109025D01*
X1226141Y108916D01*
X1225913Y108812D01*
X1225682Y108714D01*
X1225450Y108622D01*
X1225215Y108536D01*
X1224978Y108455D01*
X1224739Y108380D01*
X1224499Y108311D01*
X1224256Y108247D01*
X1224013Y108190D01*
X1223768Y108138D01*
X1223522Y108093D01*
X1223274Y108054D01*
X1223026Y108020D01*
X1222778Y107993D01*
X1222528Y107971D01*
X1222278Y107956D01*
X1222028Y107947D01*
X1221778Y107944D01*
X1211500Y107944D01*
X1244417Y128500D02*
X1252639Y91500D01*
X1260861Y116167D01*
X1269083Y91500D01*
X1277305Y128500D01*
X1292808Y128500D02*
X1292808Y91500D01*
X1292808Y128500D02*
X1303085Y128500D01*
X1303335Y128497D01*
X1303585Y128488D01*
X1303835Y128473D01*
X1304085Y128451D01*
X1304333Y128424D01*
X1304581Y128390D01*
X1304829Y128351D01*
X1305075Y128306D01*
X1305320Y128254D01*
X1305563Y128197D01*
X1305806Y128133D01*
X1306046Y128064D01*
X1306285Y127989D01*
X1306522Y127908D01*
X1306757Y127822D01*
X1306989Y127730D01*
X1307220Y127632D01*
X1307448Y127528D01*
X1307673Y127419D01*
X1307895Y127305D01*
X1308115Y127185D01*
X1308332Y127060D01*
X1308546Y126929D01*
X1308756Y126794D01*
X1308963Y126653D01*
X1309167Y126508D01*
X1309367Y126357D01*
X1309563Y126202D01*
X1309755Y126042D01*
X1309944Y125877D01*
X1310128Y125707D01*
X1310308Y125534D01*
X1310484Y125356D01*
X1310656Y125173D01*
X1310823Y124987D01*
X1310985Y124797D01*
X1311143Y124602D01*
X1311296Y124404D01*
X1311444Y124202D01*
X1311587Y123997D01*
X1311725Y123788D01*
X1311858Y123576D01*
X1311986Y123361D01*
X1312109Y123143D01*
X1312226Y122922D01*
X1312337Y122698D01*
X1312444Y122471D01*
X1312544Y122242D01*
X1312639Y122010D01*
X1312729Y121776D01*
X1312813Y121541D01*
X1312890Y121303D01*
X1312963Y121063D01*
X1313029Y120822D01*
X1313089Y120579D01*
X1313144Y120334D01*
X1313192Y120089D01*
X1313234Y119842D01*
X1313271Y119595D01*
X1313301Y119346D01*
X1313326Y119097D01*
X1313344Y118847D01*
X1313356Y118597D01*
X1313362Y118347D01*
X1313362Y118097D01*
X1313356Y117847D01*
X1313344Y117597D01*
X1313326Y117347D01*
X1313301Y117098D01*
X1313271Y116849D01*
X1313234Y116602D01*
X1313192Y116355D01*
X1313144Y116110D01*
X1313089Y115865D01*
X1313029Y115622D01*
X1312963Y115381D01*
X1312890Y115141D01*
X1312813Y114903D01*
X1312729Y114668D01*
X1312639Y114434D01*
X1312544Y114202D01*
X1312444Y113973D01*
X1312337Y113746D01*
X1312226Y113522D01*
X1312109Y113301D01*
X1311986Y113083D01*
X1311858Y112868D01*
X1311725Y112656D01*
X1311587Y112447D01*
X1311444Y112242D01*
X1311296Y112040D01*
X1311143Y111842D01*
X1310985Y111647D01*
X1310823Y111457D01*
X1310656Y111271D01*
X1310484Y111088D01*
X1310308Y110910D01*
X1310128Y110737D01*
X1309944Y110567D01*
X1309755Y110402D01*
X1309563Y110242D01*
X1309367Y110087D01*
X1309167Y109936D01*
X1308963Y109791D01*
X1308756Y109650D01*
X1308546Y109515D01*
X1308332Y109384D01*
X1308115Y109259D01*
X1307895Y109139D01*
X1307673Y109025D01*
X1307448Y108916D01*
X1307220Y108812D01*
X1306989Y108714D01*
X1306757Y108622D01*
X1306522Y108536D01*
X1306285Y108455D01*
X1306046Y108380D01*
X1305806Y108311D01*
X1305563Y108247D01*
X1305320Y108190D01*
X1305075Y108138D01*
X1304829Y108093D01*
X1304581Y108054D01*
X1304333Y108020D01*
X1304085Y107993D01*
X1303835Y107971D01*
X1303585Y107956D01*
X1303335Y107947D01*
X1303085Y107944D01*
X1292808Y107944D01*
X1305141Y107944D02*
X1313363Y91500D01*
X1935611Y45889D02*
X1945889Y41778D01*
X1935611Y45888D02*
X1935478Y45944D01*
X1935345Y46003D01*
X1935215Y46066D01*
X1935086Y46133D01*
X1934959Y46202D01*
X1934833Y46276D01*
X1934710Y46352D01*
X1934589Y46433D01*
X1934471Y46516D01*
X1934354Y46602D01*
X1934240Y46692D01*
X1934129Y46785D01*
X1934020Y46880D01*
X1933913Y46979D01*
X1933810Y47080D01*
X1933709Y47185D01*
X1933611Y47292D01*
X1933516Y47401D01*
X1933424Y47513D01*
X1933335Y47628D01*
X1933250Y47745D01*
X1933167Y47864D01*
X1933088Y47986D01*
X1933012Y48109D01*
X1932939Y48235D01*
X1932870Y48362D01*
X1932805Y48492D01*
X1932743Y48623D01*
X1932684Y48755D01*
X1932629Y48890D01*
X1932578Y49025D01*
X1932531Y49162D01*
X1932487Y49301D01*
X1932447Y49440D01*
X1932411Y49581D01*
X1932379Y49722D01*
X1932351Y49864D01*
X1932326Y50007D01*
X1932305Y50151D01*
X1932289Y50295D01*
X1932276Y50439D01*
X1932267Y50584D01*
X1932262Y50729D01*
X1932261Y50874D01*
X1932264Y51019D01*
X1932271Y51164D01*
X1932282Y51308D01*
X1932297Y51453D01*
X1932315Y51596D01*
X1932338Y51740D01*
X1932364Y51882D01*
X1932395Y52024D01*
X1932429Y52165D01*
X1932467Y52305D01*
X1932509Y52444D01*
X1932555Y52581D01*
X1932604Y52718D01*
X1932657Y52853D01*
X1932714Y52986D01*
X1932774Y53118D01*
X1932838Y53248D01*
X1932905Y53377D01*
X1932976Y53503D01*
X1933050Y53628D01*
X1933128Y53750D01*
X1933209Y53871D01*
X1933293Y53989D01*
X1933380Y54105D01*
X1933471Y54218D01*
X1933564Y54329D01*
X1933661Y54437D01*
X1933760Y54543D01*
X1933862Y54646D01*
X1933967Y54746D01*
X1934075Y54843D01*
X1934185Y54937D01*
X1934298Y55028D01*
X1934413Y55116D01*
X1934531Y55201D01*
X1934651Y55283D01*
X1934773Y55361D01*
X1934897Y55436D01*
X1935023Y55508D01*
X1935151Y55576D01*
X1935281Y55640D01*
X1935412Y55701D01*
X1935546Y55759D01*
X1935680Y55813D01*
X1935816Y55863D01*
X1935954Y55909D01*
X1936092Y55952D01*
X1936232Y55991D01*
X1936373Y56026D01*
X1936514Y56057D01*
X1936657Y56084D01*
X1936800Y56108D01*
X1936944Y56128D01*
X1937088Y56143D01*
X1937232Y56155D01*
X1937377Y56163D01*
X1937522Y56167D01*
X1937667Y56166D01*
X1937667Y56167D02*
X1938228Y56152D01*
X1938789Y56124D01*
X1939348Y56082D01*
X1939907Y56027D01*
X1940464Y55958D01*
X1941019Y55876D01*
X1941572Y55781D01*
X1942123Y55672D01*
X1942671Y55551D01*
X1943216Y55416D01*
X1943757Y55268D01*
X1944295Y55107D01*
X1944829Y54933D01*
X1945358Y54746D01*
X1945883Y54547D01*
X1946403Y54335D01*
X1946917Y54111D01*
X1945889Y41778D02*
X1946022Y41722D01*
X1946155Y41663D01*
X1946285Y41600D01*
X1946414Y41533D01*
X1946541Y41464D01*
X1946667Y41390D01*
X1946790Y41314D01*
X1946911Y41233D01*
X1947029Y41150D01*
X1947146Y41064D01*
X1947260Y40974D01*
X1947371Y40881D01*
X1947480Y40786D01*
X1947587Y40687D01*
X1947690Y40586D01*
X1947791Y40481D01*
X1947889Y40374D01*
X1947984Y40265D01*
X1948076Y40153D01*
X1948165Y40038D01*
X1948250Y39921D01*
X1948333Y39802D01*
X1948412Y39680D01*
X1948488Y39557D01*
X1948561Y39431D01*
X1948630Y39304D01*
X1948695Y39174D01*
X1948757Y39043D01*
X1948816Y38911D01*
X1948871Y38776D01*
X1948922Y38641D01*
X1948969Y38504D01*
X1949013Y38365D01*
X1949053Y38226D01*
X1949089Y38085D01*
X1949121Y37944D01*
X1949149Y37802D01*
X1949174Y37659D01*
X1949195Y37515D01*
X1949211Y37371D01*
X1949224Y37227D01*
X1949233Y37082D01*
X1949238Y36937D01*
X1949239Y36792D01*
X1949236Y36647D01*
X1949229Y36502D01*
X1949218Y36358D01*
X1949203Y36213D01*
X1949185Y36070D01*
X1949162Y35926D01*
X1949136Y35784D01*
X1949105Y35642D01*
X1949071Y35501D01*
X1949033Y35361D01*
X1948991Y35222D01*
X1948945Y35085D01*
X1948896Y34948D01*
X1948843Y34813D01*
X1948786Y34680D01*
X1948726Y34548D01*
X1948662Y34418D01*
X1948595Y34289D01*
X1948524Y34163D01*
X1948450Y34038D01*
X1948372Y33916D01*
X1948291Y33795D01*
X1948207Y33677D01*
X1948120Y33561D01*
X1948029Y33448D01*
X1947936Y33337D01*
X1947839Y33229D01*
X1947740Y33123D01*
X1947638Y33020D01*
X1947533Y32920D01*
X1947425Y32823D01*
X1947315Y32729D01*
X1947202Y32638D01*
X1947087Y32550D01*
X1946969Y32465D01*
X1946849Y32383D01*
X1946727Y32305D01*
X1946603Y32230D01*
X1946477Y32158D01*
X1946349Y32090D01*
X1946219Y32026D01*
X1946088Y31965D01*
X1945954Y31907D01*
X1945820Y31853D01*
X1945684Y31803D01*
X1945546Y31757D01*
X1945408Y31714D01*
X1945268Y31675D01*
X1945127Y31640D01*
X1944986Y31609D01*
X1944843Y31582D01*
X1944700Y31558D01*
X1944556Y31538D01*
X1944412Y31523D01*
X1944268Y31511D01*
X1944123Y31503D01*
X1943978Y31499D01*
X1943833Y31500D01*
X1943834Y31500D02*
X1943009Y31521D01*
X1942186Y31562D01*
X1941364Y31623D01*
X1940543Y31702D01*
X1939724Y31802D01*
X1938909Y31920D01*
X1938096Y32058D01*
X1937286Y32215D01*
X1936481Y32391D01*
X1935680Y32587D01*
X1934883Y32801D01*
X1934092Y33034D01*
X1933307Y33285D01*
X1932528Y33555D01*
X1962947Y25333D02*
X1962947Y56167D01*
X1962947Y25333D02*
X1962945Y25177D01*
X1962939Y25021D01*
X1962929Y24865D01*
X1962915Y24709D01*
X1962898Y24554D01*
X1962876Y24399D01*
X1962850Y24245D01*
X1962821Y24092D01*
X1962787Y23939D01*
X1962750Y23787D01*
X1962709Y23637D01*
X1962664Y23487D01*
X1962616Y23338D01*
X1962563Y23191D01*
X1962507Y23045D01*
X1962447Y22901D01*
X1962384Y22758D01*
X1962317Y22617D01*
X1962246Y22478D01*
X1962172Y22340D01*
X1962095Y22205D01*
X1962014Y22071D01*
X1961929Y21939D01*
X1961842Y21810D01*
X1961751Y21683D01*
X1961657Y21558D01*
X1961560Y21436D01*
X1961459Y21316D01*
X1961356Y21199D01*
X1961250Y21084D01*
X1961141Y20972D01*
X1961029Y20863D01*
X1960914Y20757D01*
X1960797Y20654D01*
X1960677Y20554D01*
X1960555Y20456D01*
X1960430Y20362D01*
X1960303Y20271D01*
X1960174Y20184D01*
X1960042Y20099D01*
X1959909Y20018D01*
X1959773Y19941D01*
X1959635Y19867D01*
X1959496Y19796D01*
X1959355Y19729D01*
X1959212Y19666D01*
X1959068Y19606D01*
X1958922Y19550D01*
X1958775Y19498D01*
X1958626Y19449D01*
X1958477Y19404D01*
X1958326Y19363D01*
X1958174Y19326D01*
X1958022Y19292D01*
X1957868Y19263D01*
X1957714Y19237D01*
X1957559Y19215D01*
X1957404Y19198D01*
X1957248Y19184D01*
X1957092Y19174D01*
X1956936Y19168D01*
X1956780Y19166D01*
X1956780Y19167D02*
X1954725Y19167D01*
X1961919Y66444D02*
X1961919Y68500D01*
X1963975Y68500D01*
X1963975Y66444D01*
X1961919Y66444D01*
X1980016Y56167D02*
X1980016Y31500D01*
X1980016Y56167D02*
X1998516Y56167D01*
X1998672Y56165D01*
X1998828Y56159D01*
X1998984Y56149D01*
X1999140Y56135D01*
X1999295Y56118D01*
X1999450Y56096D01*
X1999604Y56070D01*
X1999757Y56041D01*
X1999910Y56007D01*
X2000062Y55970D01*
X2000213Y55929D01*
X2000362Y55884D01*
X2000511Y55836D01*
X2000658Y55783D01*
X2000804Y55727D01*
X2000948Y55667D01*
X2001091Y55604D01*
X2001232Y55537D01*
X2001371Y55466D01*
X2001509Y55392D01*
X2001644Y55315D01*
X2001778Y55234D01*
X2001910Y55149D01*
X2002039Y55062D01*
X2002166Y54971D01*
X2002291Y54877D01*
X2002413Y54780D01*
X2002533Y54679D01*
X2002650Y54576D01*
X2002765Y54470D01*
X2002877Y54361D01*
X2002986Y54249D01*
X2003092Y54134D01*
X2003195Y54017D01*
X2003296Y53897D01*
X2003393Y53775D01*
X2003487Y53650D01*
X2003578Y53523D01*
X2003665Y53394D01*
X2003750Y53262D01*
X2003831Y53128D01*
X2003908Y52993D01*
X2003982Y52855D01*
X2004053Y52716D01*
X2004120Y52575D01*
X2004183Y52432D01*
X2004243Y52288D01*
X2004299Y52142D01*
X2004352Y51995D01*
X2004400Y51846D01*
X2004445Y51697D01*
X2004486Y51546D01*
X2004523Y51394D01*
X2004557Y51241D01*
X2004586Y51088D01*
X2004612Y50934D01*
X2004634Y50779D01*
X2004651Y50624D01*
X2004665Y50468D01*
X2004675Y50312D01*
X2004681Y50156D01*
X2004683Y50000D01*
X2004683Y31500D01*
X1992350Y31500D02*
X1992350Y56167D01*
X2021672Y39722D02*
X2029894Y68500D01*
X2021672Y39722D02*
X2042227Y39722D01*
X2036061Y47944D02*
X2036061Y31500D01*
X2057672Y31500D02*
X2067949Y31500D01*
X2068199Y31503D01*
X2068449Y31512D01*
X2068699Y31527D01*
X2068949Y31549D01*
X2069197Y31576D01*
X2069445Y31610D01*
X2069693Y31649D01*
X2069939Y31694D01*
X2070184Y31746D01*
X2070427Y31803D01*
X2070670Y31867D01*
X2070910Y31936D01*
X2071149Y32011D01*
X2071386Y32092D01*
X2071621Y32178D01*
X2071853Y32270D01*
X2072084Y32368D01*
X2072312Y32472D01*
X2072537Y32581D01*
X2072759Y32695D01*
X2072979Y32815D01*
X2073196Y32940D01*
X2073410Y33071D01*
X2073620Y33206D01*
X2073827Y33347D01*
X2074031Y33492D01*
X2074231Y33643D01*
X2074427Y33798D01*
X2074619Y33958D01*
X2074808Y34123D01*
X2074992Y34293D01*
X2075172Y34466D01*
X2075348Y34644D01*
X2075520Y34827D01*
X2075687Y35013D01*
X2075849Y35203D01*
X2076007Y35398D01*
X2076160Y35596D01*
X2076308Y35798D01*
X2076451Y36003D01*
X2076589Y36212D01*
X2076722Y36424D01*
X2076850Y36639D01*
X2076973Y36857D01*
X2077090Y37078D01*
X2077201Y37302D01*
X2077308Y37529D01*
X2077408Y37758D01*
X2077503Y37990D01*
X2077593Y38224D01*
X2077677Y38459D01*
X2077754Y38697D01*
X2077827Y38937D01*
X2077893Y39178D01*
X2077953Y39421D01*
X2078008Y39666D01*
X2078056Y39911D01*
X2078098Y40158D01*
X2078135Y40405D01*
X2078165Y40654D01*
X2078190Y40903D01*
X2078208Y41153D01*
X2078220Y41403D01*
X2078226Y41653D01*
X2078226Y41903D01*
X2078220Y42153D01*
X2078208Y42403D01*
X2078190Y42653D01*
X2078165Y42902D01*
X2078135Y43151D01*
X2078098Y43398D01*
X2078056Y43645D01*
X2078008Y43890D01*
X2077953Y44135D01*
X2077893Y44378D01*
X2077827Y44619D01*
X2077754Y44859D01*
X2077677Y45097D01*
X2077593Y45332D01*
X2077503Y45566D01*
X2077408Y45798D01*
X2077308Y46027D01*
X2077201Y46254D01*
X2077090Y46478D01*
X2076973Y46699D01*
X2076850Y46917D01*
X2076722Y47132D01*
X2076589Y47344D01*
X2076451Y47553D01*
X2076308Y47758D01*
X2076160Y47960D01*
X2076007Y48158D01*
X2075849Y48353D01*
X2075687Y48543D01*
X2075520Y48729D01*
X2075348Y48912D01*
X2075172Y49090D01*
X2074992Y49263D01*
X2074808Y49433D01*
X2074619Y49598D01*
X2074427Y49758D01*
X2074231Y49913D01*
X2074031Y50064D01*
X2073827Y50209D01*
X2073620Y50350D01*
X2073410Y50485D01*
X2073196Y50616D01*
X2072979Y50741D01*
X2072759Y50861D01*
X2072537Y50975D01*
X2072312Y51084D01*
X2072084Y51188D01*
X2071853Y51286D01*
X2071621Y51378D01*
X2071386Y51464D01*
X2071149Y51545D01*
X2070910Y51620D01*
X2070670Y51689D01*
X2070427Y51753D01*
X2070184Y51810D01*
X2069939Y51862D01*
X2069693Y51907D01*
X2069445Y51946D01*
X2069197Y51980D01*
X2068949Y52007D01*
X2068699Y52029D01*
X2068449Y52044D01*
X2068199Y52053D01*
X2067949Y52056D01*
X2070005Y68500D02*
X2057672Y68500D01*
X2070005Y68500D02*
X2070205Y68498D01*
X2070405Y68490D01*
X2070605Y68478D01*
X2070805Y68461D01*
X2071004Y68439D01*
X2071202Y68412D01*
X2071400Y68381D01*
X2071597Y68344D01*
X2071793Y68303D01*
X2071988Y68257D01*
X2072181Y68207D01*
X2072374Y68151D01*
X2072565Y68091D01*
X2072754Y68027D01*
X2072942Y67957D01*
X2073128Y67884D01*
X2073313Y67805D01*
X2073495Y67723D01*
X2073675Y67635D01*
X2073853Y67544D01*
X2074029Y67448D01*
X2074202Y67348D01*
X2074373Y67244D01*
X2074542Y67135D01*
X2074707Y67023D01*
X2074870Y66906D01*
X2075030Y66786D01*
X2075187Y66661D01*
X2075341Y66533D01*
X2075492Y66402D01*
X2075639Y66266D01*
X2075783Y66127D01*
X2075924Y65985D01*
X2076061Y65839D01*
X2076195Y65690D01*
X2076325Y65537D01*
X2076451Y65382D01*
X2076573Y65223D01*
X2076692Y65062D01*
X2076806Y64898D01*
X2076917Y64731D01*
X2077023Y64561D01*
X2077125Y64389D01*
X2077223Y64214D01*
X2077317Y64037D01*
X2077407Y63858D01*
X2077492Y63677D01*
X2077572Y63494D01*
X2077648Y63308D01*
X2077720Y63121D01*
X2077787Y62933D01*
X2077849Y62742D01*
X2077907Y62551D01*
X2077960Y62358D01*
X2078008Y62163D01*
X2078051Y61968D01*
X2078090Y61771D01*
X2078124Y61574D01*
X2078153Y61376D01*
X2078178Y61177D01*
X2078197Y60978D01*
X2078212Y60778D01*
X2078222Y60578D01*
X2078226Y60378D01*
X2078226Y60178D01*
X2078222Y59978D01*
X2078212Y59778D01*
X2078197Y59578D01*
X2078178Y59379D01*
X2078153Y59180D01*
X2078124Y58982D01*
X2078090Y58785D01*
X2078051Y58588D01*
X2078008Y58393D01*
X2077960Y58198D01*
X2077907Y58005D01*
X2077849Y57814D01*
X2077787Y57623D01*
X2077720Y57435D01*
X2077648Y57248D01*
X2077572Y57062D01*
X2077492Y56879D01*
X2077407Y56698D01*
X2077317Y56519D01*
X2077223Y56342D01*
X2077125Y56167D01*
X2077023Y55995D01*
X2076917Y55825D01*
X2076806Y55658D01*
X2076692Y55494D01*
X2076573Y55333D01*
X2076451Y55174D01*
X2076325Y55019D01*
X2076195Y54866D01*
X2076061Y54717D01*
X2075924Y54571D01*
X2075783Y54429D01*
X2075639Y54290D01*
X2075492Y54154D01*
X2075341Y54023D01*
X2075187Y53895D01*
X2075030Y53770D01*
X2074870Y53650D01*
X2074707Y53533D01*
X2074542Y53421D01*
X2074373Y53312D01*
X2074202Y53208D01*
X2074029Y53108D01*
X2073853Y53012D01*
X2073675Y52921D01*
X2073495Y52833D01*
X2073313Y52751D01*
X2073128Y52672D01*
X2072942Y52599D01*
X2072754Y52529D01*
X2072565Y52465D01*
X2072374Y52405D01*
X2072181Y52349D01*
X2071988Y52299D01*
X2071793Y52253D01*
X2071597Y52212D01*
X2071400Y52175D01*
X2071202Y52144D01*
X2071004Y52117D01*
X2070805Y52095D01*
X2070605Y52078D01*
X2070405Y52066D01*
X2070205Y52058D01*
X2070005Y52056D01*
X2070005Y52055D02*
X2061783Y52055D01*
X2093671Y50000D02*
X2093680Y50728D01*
X2093706Y51455D01*
X2093749Y52182D01*
X2093810Y52907D01*
X2093888Y53631D01*
X2093983Y54353D01*
X2094096Y55072D01*
X2094225Y55788D01*
X2094372Y56501D01*
X2094536Y57210D01*
X2094716Y57915D01*
X2094914Y58616D01*
X2095128Y59312D01*
X2095358Y60002D01*
X2095605Y60687D01*
X2095868Y61366D01*
X2096148Y62038D01*
X2096443Y62703D01*
X2096754Y63361D01*
X2096816Y63535D01*
X2096883Y63708D01*
X2096953Y63879D01*
X2097028Y64048D01*
X2097107Y64215D01*
X2097189Y64381D01*
X2097276Y64544D01*
X2097367Y64705D01*
X2097462Y64864D01*
X2097560Y65021D01*
X2097662Y65175D01*
X2097768Y65327D01*
X2097878Y65476D01*
X2097991Y65622D01*
X2098108Y65766D01*
X2098228Y65906D01*
X2098352Y66044D01*
X2098479Y66179D01*
X2098609Y66310D01*
X2098742Y66438D01*
X2098878Y66563D01*
X2099018Y66685D01*
X2099160Y66803D01*
X2099305Y66918D01*
X2099453Y67029D01*
X2099604Y67137D01*
X2099757Y67240D01*
X2099912Y67340D01*
X2100070Y67437D01*
X2100231Y67529D01*
X2100393Y67618D01*
X2100558Y67702D01*
X2100724Y67783D01*
X2100893Y67859D01*
X2101063Y67931D01*
X2101235Y67999D01*
X2101409Y68063D01*
X2101584Y68123D01*
X2101760Y68178D01*
X2101938Y68229D01*
X2102117Y68276D01*
X2102297Y68318D01*
X2102478Y68356D01*
X2102660Y68390D01*
X2102843Y68419D01*
X2103026Y68444D01*
X2103210Y68464D01*
X2103394Y68480D01*
X2103579Y68491D01*
X2103764Y68498D01*
X2103949Y68500D01*
X2104134Y68498D01*
X2104319Y68491D01*
X2104504Y68480D01*
X2104688Y68464D01*
X2104872Y68444D01*
X2105055Y68419D01*
X2105238Y68390D01*
X2105420Y68356D01*
X2105601Y68318D01*
X2105781Y68276D01*
X2105960Y68229D01*
X2106138Y68178D01*
X2106314Y68123D01*
X2106489Y68063D01*
X2106663Y67999D01*
X2106835Y67931D01*
X2107005Y67859D01*
X2107174Y67783D01*
X2107340Y67702D01*
X2107505Y67618D01*
X2107667Y67529D01*
X2107828Y67437D01*
X2107986Y67340D01*
X2108141Y67240D01*
X2108294Y67137D01*
X2108445Y67029D01*
X2108593Y66918D01*
X2108738Y66803D01*
X2108880Y66685D01*
X2109020Y66563D01*
X2109156Y66438D01*
X2109289Y66310D01*
X2109419Y66179D01*
X2109546Y66044D01*
X2109670Y65906D01*
X2109790Y65766D01*
X2109907Y65622D01*
X2110020Y65476D01*
X2110130Y65327D01*
X2110236Y65175D01*
X2110338Y65021D01*
X2110436Y64864D01*
X2110531Y64705D01*
X2110622Y64544D01*
X2110709Y64381D01*
X2110791Y64215D01*
X2110870Y64048D01*
X2110945Y63879D01*
X2111015Y63708D01*
X2111082Y63535D01*
X2111144Y63361D01*
X2111455Y62703D01*
X2111750Y62038D01*
X2112030Y61366D01*
X2112293Y60687D01*
X2112540Y60002D01*
X2112770Y59312D01*
X2112984Y58616D01*
X2113182Y57915D01*
X2113362Y57210D01*
X2113526Y56501D01*
X2113673Y55788D01*
X2113802Y55072D01*
X2113915Y54353D01*
X2114010Y53631D01*
X2114088Y52907D01*
X2114149Y52182D01*
X2114192Y51455D01*
X2114218Y50728D01*
X2114227Y50000D01*
X2093671Y50000D02*
X2093680Y49272D01*
X2093706Y48545D01*
X2093749Y47818D01*
X2093810Y47093D01*
X2093888Y46369D01*
X2093983Y45647D01*
X2094096Y44928D01*
X2094225Y44212D01*
X2094372Y43499D01*
X2094536Y42790D01*
X2094716Y42084D01*
X2094914Y41384D01*
X2095128Y40688D01*
X2095358Y39998D01*
X2095605Y39313D01*
X2095868Y38634D01*
X2096148Y37962D01*
X2096443Y37297D01*
X2096754Y36639D01*
X2096816Y36465D01*
X2096883Y36292D01*
X2096953Y36121D01*
X2097028Y35952D01*
X2097107Y35784D01*
X2097189Y35619D01*
X2097276Y35456D01*
X2097367Y35294D01*
X2097462Y35135D01*
X2097560Y34979D01*
X2097662Y34825D01*
X2097768Y34673D01*
X2097878Y34524D01*
X2097991Y34378D01*
X2098108Y34234D01*
X2098228Y34094D01*
X2098352Y33956D01*
X2098479Y33821D01*
X2098609Y33690D01*
X2098742Y33562D01*
X2098879Y33437D01*
X2099018Y33315D01*
X2099160Y33197D01*
X2099305Y33082D01*
X2099453Y32971D01*
X2099604Y32863D01*
X2099757Y32760D01*
X2099912Y32659D01*
X2100070Y32563D01*
X2100231Y32471D01*
X2100393Y32382D01*
X2100558Y32298D01*
X2100724Y32217D01*
X2100893Y32141D01*
X2101063Y32069D01*
X2101235Y32001D01*
X2101409Y31937D01*
X2101584Y31877D01*
X2101760Y31822D01*
X2101938Y31771D01*
X2102117Y31724D01*
X2102297Y31682D01*
X2102478Y31644D01*
X2102660Y31610D01*
X2102843Y31581D01*
X2103026Y31556D01*
X2103210Y31536D01*
X2103394Y31520D01*
X2103579Y31509D01*
X2103764Y31502D01*
X2103949Y31500D01*
X2111144Y36639D02*
X2111455Y37297D01*
X2111750Y37962D01*
X2112030Y38634D01*
X2112293Y39313D01*
X2112540Y39998D01*
X2112770Y40688D01*
X2112984Y41384D01*
X2113182Y42084D01*
X2113362Y42790D01*
X2113526Y43499D01*
X2113673Y44212D01*
X2113802Y44928D01*
X2113915Y45647D01*
X2114010Y46369D01*
X2114088Y47093D01*
X2114149Y47818D01*
X2114192Y48545D01*
X2114218Y49272D01*
X2114227Y50000D01*
X2111144Y36639D02*
X2111082Y36465D01*
X2111015Y36292D01*
X2110945Y36121D01*
X2110870Y35952D01*
X2110791Y35784D01*
X2110709Y35619D01*
X2110622Y35456D01*
X2110531Y35294D01*
X2110436Y35136D01*
X2110338Y34979D01*
X2110236Y34825D01*
X2110130Y34673D01*
X2110020Y34524D01*
X2109907Y34378D01*
X2109790Y34234D01*
X2109670Y34094D01*
X2109546Y33956D01*
X2109419Y33821D01*
X2109289Y33690D01*
X2109156Y33562D01*
X2109020Y33437D01*
X2108880Y33315D01*
X2108738Y33197D01*
X2108593Y33082D01*
X2108445Y32971D01*
X2108294Y32863D01*
X2108141Y32760D01*
X2107986Y32659D01*
X2107828Y32563D01*
X2107667Y32471D01*
X2107505Y32382D01*
X2107340Y32298D01*
X2107174Y32217D01*
X2107005Y32141D01*
X2106835Y32069D01*
X2106663Y32001D01*
X2106489Y31937D01*
X2106314Y31877D01*
X2106138Y31822D01*
X2105960Y31771D01*
X2105781Y31724D01*
X2105601Y31682D01*
X2105420Y31644D01*
X2105238Y31610D01*
X2105055Y31581D01*
X2104872Y31556D01*
X2104688Y31536D01*
X2104504Y31520D01*
X2104319Y31509D01*
X2104134Y31502D01*
X2103949Y31500D01*
X2095727Y39722D02*
X2112172Y60278D01*
X2129672Y52055D02*
X2142005Y52055D01*
X2142204Y52053D01*
X2142402Y52045D01*
X2142601Y52033D01*
X2142799Y52017D01*
X2142996Y51995D01*
X2143193Y51969D01*
X2143389Y51938D01*
X2143585Y51902D01*
X2143779Y51861D01*
X2143973Y51816D01*
X2144165Y51766D01*
X2144356Y51712D01*
X2144546Y51653D01*
X2144734Y51589D01*
X2144921Y51521D01*
X2145105Y51448D01*
X2145289Y51371D01*
X2145470Y51289D01*
X2145649Y51203D01*
X2145826Y51113D01*
X2146001Y51019D01*
X2146173Y50920D01*
X2146343Y50817D01*
X2146511Y50710D01*
X2146676Y50600D01*
X2146838Y50485D01*
X2146997Y50366D01*
X2147153Y50243D01*
X2147307Y50117D01*
X2147457Y49987D01*
X2147604Y49854D01*
X2147748Y49717D01*
X2147889Y49576D01*
X2148026Y49432D01*
X2148159Y49285D01*
X2148289Y49135D01*
X2148415Y48981D01*
X2148538Y48825D01*
X2148657Y48666D01*
X2148772Y48504D01*
X2148882Y48339D01*
X2148989Y48171D01*
X2149092Y48001D01*
X2149191Y47829D01*
X2149285Y47654D01*
X2149375Y47477D01*
X2149461Y47298D01*
X2149543Y47117D01*
X2149620Y46933D01*
X2149693Y46749D01*
X2149761Y46562D01*
X2149825Y46374D01*
X2149884Y46184D01*
X2149938Y45993D01*
X2149988Y45801D01*
X2150033Y45607D01*
X2150074Y45413D01*
X2150110Y45217D01*
X2150141Y45021D01*
X2150167Y44824D01*
X2150189Y44627D01*
X2150205Y44429D01*
X2150217Y44230D01*
X2150225Y44032D01*
X2150227Y43833D01*
X2150227Y41778D01*
X2150224Y41528D01*
X2150215Y41278D01*
X2150200Y41028D01*
X2150178Y40778D01*
X2150151Y40530D01*
X2150117Y40282D01*
X2150078Y40034D01*
X2150033Y39788D01*
X2149981Y39543D01*
X2149924Y39300D01*
X2149860Y39057D01*
X2149791Y38817D01*
X2149716Y38578D01*
X2149635Y38341D01*
X2149549Y38106D01*
X2149457Y37874D01*
X2149359Y37643D01*
X2149255Y37415D01*
X2149146Y37190D01*
X2149032Y36968D01*
X2148912Y36748D01*
X2148787Y36531D01*
X2148656Y36317D01*
X2148521Y36107D01*
X2148380Y35900D01*
X2148235Y35696D01*
X2148084Y35496D01*
X2147929Y35300D01*
X2147769Y35108D01*
X2147604Y34919D01*
X2147434Y34735D01*
X2147261Y34555D01*
X2147083Y34379D01*
X2146900Y34207D01*
X2146714Y34040D01*
X2146524Y33878D01*
X2146329Y33720D01*
X2146131Y33567D01*
X2145929Y33419D01*
X2145724Y33276D01*
X2145515Y33138D01*
X2145303Y33005D01*
X2145088Y32877D01*
X2144870Y32754D01*
X2144649Y32637D01*
X2144425Y32526D01*
X2144198Y32419D01*
X2143969Y32319D01*
X2143737Y32224D01*
X2143503Y32134D01*
X2143268Y32050D01*
X2143030Y31973D01*
X2142790Y31900D01*
X2142549Y31834D01*
X2142306Y31774D01*
X2142061Y31719D01*
X2141816Y31671D01*
X2141569Y31629D01*
X2141322Y31592D01*
X2141073Y31562D01*
X2140824Y31537D01*
X2140574Y31519D01*
X2140324Y31507D01*
X2140074Y31501D01*
X2139824Y31501D01*
X2139574Y31507D01*
X2139324Y31519D01*
X2139074Y31537D01*
X2138825Y31562D01*
X2138576Y31592D01*
X2138329Y31629D01*
X2138082Y31671D01*
X2137837Y31719D01*
X2137592Y31774D01*
X2137349Y31834D01*
X2137108Y31900D01*
X2136868Y31973D01*
X2136630Y32050D01*
X2136395Y32134D01*
X2136161Y32224D01*
X2135929Y32319D01*
X2135700Y32419D01*
X2135473Y32526D01*
X2135249Y32637D01*
X2135028Y32754D01*
X2134810Y32877D01*
X2134595Y33005D01*
X2134383Y33138D01*
X2134174Y33276D01*
X2133969Y33419D01*
X2133767Y33567D01*
X2133569Y33720D01*
X2133374Y33878D01*
X2133184Y34040D01*
X2132998Y34207D01*
X2132815Y34379D01*
X2132637Y34555D01*
X2132464Y34735D01*
X2132294Y34919D01*
X2132129Y35108D01*
X2131969Y35300D01*
X2131814Y35496D01*
X2131663Y35696D01*
X2131518Y35900D01*
X2131377Y36107D01*
X2131242Y36317D01*
X2131111Y36531D01*
X2130986Y36748D01*
X2130866Y36968D01*
X2130752Y37190D01*
X2130643Y37415D01*
X2130539Y37643D01*
X2130441Y37874D01*
X2130349Y38106D01*
X2130263Y38341D01*
X2130182Y38578D01*
X2130107Y38817D01*
X2130038Y39057D01*
X2129974Y39300D01*
X2129917Y39543D01*
X2129865Y39788D01*
X2129820Y40034D01*
X2129781Y40282D01*
X2129747Y40530D01*
X2129720Y40778D01*
X2129698Y41028D01*
X2129683Y41278D01*
X2129674Y41528D01*
X2129671Y41778D01*
X2129672Y41778D02*
X2129672Y52055D01*
X2129671Y52055D02*
X2129676Y52459D01*
X2129691Y52862D01*
X2129716Y53265D01*
X2129750Y53667D01*
X2129795Y54068D01*
X2129849Y54468D01*
X2129913Y54866D01*
X2129987Y55263D01*
X2130071Y55658D01*
X2130164Y56051D01*
X2130267Y56441D01*
X2130379Y56829D01*
X2130501Y57213D01*
X2130632Y57595D01*
X2130773Y57973D01*
X2130923Y58348D01*
X2131082Y58719D01*
X2131250Y59086D01*
X2131427Y59449D01*
X2131613Y59807D01*
X2131807Y60161D01*
X2132011Y60509D01*
X2132222Y60853D01*
X2132442Y61191D01*
X2132671Y61524D01*
X2132907Y61851D01*
X2133152Y62172D01*
X2133404Y62488D01*
X2133664Y62796D01*
X2133931Y63099D01*
X2134206Y63394D01*
X2134488Y63683D01*
X2134776Y63965D01*
X2135072Y64240D01*
X2135375Y64507D01*
X2135683Y64767D01*
X2135998Y65019D01*
X2136320Y65264D01*
X2136647Y65500D01*
X2136980Y65728D01*
X2137318Y65949D01*
X2137662Y66160D01*
X2138010Y66364D01*
X2138364Y66558D01*
X2138722Y66744D01*
X2139085Y66921D01*
X2139452Y67089D01*
X2139823Y67248D01*
X2140197Y67398D01*
X2140576Y67539D01*
X2140957Y67670D01*
X2141342Y67792D01*
X2141730Y67904D01*
X2142120Y68007D01*
X2142513Y68100D01*
X2142908Y68184D01*
X2143304Y68258D01*
X2143703Y68322D01*
X2144103Y68376D01*
X2144504Y68421D01*
X2144906Y68455D01*
X2145309Y68480D01*
X2145712Y68495D01*
X2146116Y68500D01*
D11*
X374333Y1923000D02*
X374677Y1923004D01*
X375020Y1923017D01*
X375363Y1923037D01*
X375706Y1923066D01*
X376047Y1923104D01*
X376388Y1923149D01*
X376727Y1923203D01*
X377065Y1923265D01*
X377402Y1923335D01*
X377737Y1923413D01*
X378069Y1923500D01*
X378400Y1923594D01*
X378728Y1923696D01*
X379053Y1923806D01*
X379376Y1923924D01*
X379696Y1924050D01*
X380013Y1924183D01*
X380326Y1924324D01*
X380636Y1924473D01*
X380942Y1924629D01*
X381245Y1924792D01*
X381543Y1924963D01*
X381837Y1925141D01*
X382127Y1925326D01*
X382412Y1925518D01*
X382692Y1925716D01*
X382968Y1925922D01*
X383239Y1926133D01*
X383504Y1926352D01*
X383764Y1926577D01*
X384018Y1926808D01*
X384267Y1927045D01*
X384510Y1927288D01*
X384747Y1927537D01*
X384978Y1927791D01*
X385203Y1928051D01*
X385422Y1928316D01*
X385633Y1928587D01*
X385839Y1928863D01*
X386037Y1929143D01*
X386229Y1929428D01*
X386414Y1929718D01*
X386592Y1930012D01*
X386763Y1930310D01*
X386926Y1930613D01*
X387082Y1930919D01*
X387231Y1931229D01*
X387372Y1931542D01*
X387505Y1931859D01*
X387631Y1932179D01*
X387749Y1932502D01*
X387859Y1932827D01*
X387961Y1933155D01*
X388055Y1933486D01*
X388142Y1933818D01*
X388220Y1934153D01*
X388290Y1934490D01*
X388352Y1934828D01*
X388406Y1935167D01*
X388451Y1935508D01*
X388489Y1935849D01*
X388518Y1936192D01*
X388538Y1936535D01*
X388551Y1936878D01*
X388555Y1937222D01*
X374333Y1923000D02*
X373614Y1923009D01*
X372896Y1923034D01*
X372178Y1923077D01*
X371462Y1923137D01*
X370747Y1923215D01*
X370035Y1923309D01*
X369324Y1923420D01*
X368617Y1923549D01*
X367913Y1923694D01*
X367213Y1923856D01*
X366516Y1924035D01*
X365825Y1924230D01*
X365138Y1924442D01*
X364456Y1924670D01*
X363780Y1924914D01*
X363110Y1925175D01*
X362446Y1925451D01*
X361790Y1925744D01*
X361140Y1926051D01*
X360498Y1926375D01*
X359864Y1926713D01*
X359238Y1927067D01*
X358621Y1927436D01*
X358013Y1927819D01*
X357414Y1928217D01*
X356825Y1928628D01*
X356246Y1929054D01*
X355677Y1929494D01*
X355119Y1929947D01*
X354572Y1930413D01*
X354036Y1930893D01*
X353512Y1931384D01*
X353000Y1931889D01*
X354778Y1972778D02*
X354782Y1973122D01*
X354795Y1973465D01*
X354815Y1973808D01*
X354844Y1974151D01*
X354882Y1974492D01*
X354927Y1974833D01*
X354981Y1975172D01*
X355043Y1975510D01*
X355113Y1975847D01*
X355191Y1976182D01*
X355278Y1976514D01*
X355372Y1976845D01*
X355474Y1977173D01*
X355584Y1977498D01*
X355702Y1977821D01*
X355828Y1978141D01*
X355961Y1978458D01*
X356102Y1978771D01*
X356251Y1979081D01*
X356407Y1979387D01*
X356570Y1979690D01*
X356741Y1979988D01*
X356919Y1980282D01*
X357104Y1980572D01*
X357296Y1980857D01*
X357494Y1981138D01*
X357700Y1981413D01*
X357912Y1981684D01*
X358130Y1981949D01*
X358355Y1982209D01*
X358586Y1982463D01*
X358823Y1982712D01*
X359066Y1982955D01*
X359315Y1983192D01*
X359569Y1983423D01*
X359829Y1983648D01*
X360094Y1983867D01*
X360365Y1984079D01*
X360641Y1984284D01*
X360921Y1984483D01*
X361206Y1984674D01*
X361496Y1984859D01*
X361790Y1985037D01*
X362088Y1985208D01*
X362391Y1985371D01*
X362697Y1985527D01*
X363007Y1985676D01*
X363320Y1985817D01*
X363637Y1985950D01*
X363957Y1986076D01*
X364280Y1986194D01*
X364605Y1986304D01*
X364933Y1986406D01*
X365264Y1986500D01*
X365597Y1986587D01*
X365931Y1986665D01*
X366268Y1986735D01*
X366606Y1986797D01*
X366945Y1986851D01*
X367286Y1986896D01*
X367627Y1986934D01*
X367970Y1986963D01*
X368313Y1986983D01*
X368656Y1986996D01*
X369000Y1987000D01*
X369636Y1986992D01*
X370271Y1986970D01*
X370905Y1986932D01*
X371539Y1986879D01*
X372171Y1986811D01*
X372801Y1986728D01*
X373429Y1986630D01*
X374054Y1986517D01*
X374676Y1986389D01*
X375296Y1986246D01*
X375912Y1986089D01*
X376523Y1985917D01*
X377131Y1985730D01*
X377734Y1985529D01*
X378332Y1985314D01*
X378924Y1985084D01*
X379511Y1984841D01*
X380093Y1984583D01*
X380667Y1984312D01*
X381235Y1984027D01*
X381797Y1983729D01*
X382351Y1983417D01*
X382897Y1983093D01*
X383435Y1982755D01*
X383966Y1982405D01*
X384487Y1982042D01*
X385000Y1981667D01*
X361889Y1960334D02*
X361591Y1960515D01*
X361297Y1960702D01*
X361008Y1960897D01*
X360723Y1961099D01*
X360444Y1961308D01*
X360169Y1961523D01*
X359900Y1961745D01*
X359636Y1961973D01*
X359378Y1962208D01*
X359126Y1962448D01*
X358880Y1962695D01*
X358639Y1962948D01*
X358405Y1963206D01*
X358177Y1963470D01*
X357955Y1963740D01*
X357740Y1964014D01*
X357532Y1964294D01*
X357331Y1964579D01*
X357136Y1964868D01*
X356949Y1965162D01*
X356769Y1965461D01*
X356596Y1965764D01*
X356430Y1966071D01*
X356272Y1966381D01*
X356121Y1966696D01*
X355978Y1967014D01*
X355843Y1967335D01*
X355715Y1967660D01*
X355595Y1967988D01*
X355484Y1968318D01*
X355380Y1968651D01*
X355285Y1968986D01*
X355197Y1969324D01*
X355118Y1969664D01*
X355047Y1970005D01*
X354984Y1970348D01*
X354929Y1970693D01*
X354883Y1971038D01*
X354845Y1971385D01*
X354816Y1971733D01*
X354795Y1972081D01*
X354782Y1972429D01*
X354778Y1972778D01*
X381444Y1949666D02*
X381742Y1949485D01*
X382036Y1949298D01*
X382326Y1949103D01*
X382610Y1948901D01*
X382889Y1948692D01*
X383164Y1948477D01*
X383433Y1948255D01*
X383697Y1948027D01*
X383955Y1947792D01*
X384207Y1947552D01*
X384453Y1947305D01*
X384694Y1947052D01*
X384928Y1946794D01*
X385156Y1946530D01*
X385378Y1946260D01*
X385593Y1945986D01*
X385801Y1945706D01*
X386002Y1945421D01*
X386197Y1945132D01*
X386384Y1944838D01*
X386564Y1944539D01*
X386738Y1944236D01*
X386903Y1943929D01*
X387061Y1943619D01*
X387212Y1943304D01*
X387355Y1942986D01*
X387490Y1942665D01*
X387618Y1942340D01*
X387738Y1942012D01*
X387849Y1941682D01*
X387953Y1941349D01*
X388048Y1941014D01*
X388136Y1940676D01*
X388215Y1940336D01*
X388286Y1939995D01*
X388349Y1939652D01*
X388404Y1939307D01*
X388450Y1938962D01*
X388488Y1938615D01*
X388517Y1938267D01*
X388538Y1937919D01*
X388551Y1937571D01*
X388555Y1937222D01*
X381444Y1949667D02*
X361889Y1960333D01*
X412489Y1979889D02*
X412489Y1987000D01*
X448044Y1987000D01*
X430267Y1923000D01*
X493311Y1923000D02*
X493655Y1923004D01*
X493998Y1923017D01*
X494341Y1923037D01*
X494684Y1923066D01*
X495025Y1923104D01*
X495366Y1923149D01*
X495705Y1923203D01*
X496043Y1923265D01*
X496380Y1923335D01*
X496715Y1923413D01*
X497047Y1923500D01*
X497378Y1923594D01*
X497706Y1923696D01*
X498031Y1923806D01*
X498354Y1923924D01*
X498674Y1924050D01*
X498991Y1924183D01*
X499304Y1924324D01*
X499614Y1924473D01*
X499920Y1924629D01*
X500223Y1924792D01*
X500521Y1924963D01*
X500815Y1925141D01*
X501105Y1925326D01*
X501390Y1925518D01*
X501670Y1925716D01*
X501946Y1925922D01*
X502217Y1926133D01*
X502482Y1926352D01*
X502742Y1926577D01*
X502996Y1926808D01*
X503245Y1927045D01*
X503488Y1927288D01*
X503725Y1927537D01*
X503956Y1927791D01*
X504181Y1928051D01*
X504400Y1928316D01*
X504611Y1928587D01*
X504817Y1928863D01*
X505015Y1929143D01*
X505207Y1929428D01*
X505392Y1929718D01*
X505570Y1930012D01*
X505741Y1930310D01*
X505904Y1930613D01*
X506060Y1930919D01*
X506209Y1931229D01*
X506350Y1931542D01*
X506483Y1931859D01*
X506609Y1932179D01*
X506727Y1932502D01*
X506837Y1932827D01*
X506939Y1933155D01*
X507033Y1933486D01*
X507120Y1933818D01*
X507198Y1934153D01*
X507268Y1934490D01*
X507330Y1934828D01*
X507384Y1935167D01*
X507429Y1935508D01*
X507467Y1935849D01*
X507496Y1936192D01*
X507516Y1936535D01*
X507529Y1936878D01*
X507533Y1937222D01*
X493311Y1923000D02*
X492592Y1923009D01*
X491874Y1923034D01*
X491156Y1923077D01*
X490440Y1923137D01*
X489725Y1923215D01*
X489013Y1923309D01*
X488302Y1923420D01*
X487595Y1923549D01*
X486891Y1923694D01*
X486191Y1923856D01*
X485494Y1924035D01*
X484803Y1924230D01*
X484116Y1924442D01*
X483434Y1924670D01*
X482758Y1924914D01*
X482088Y1925175D01*
X481424Y1925451D01*
X480768Y1925744D01*
X480118Y1926051D01*
X479476Y1926375D01*
X478842Y1926713D01*
X478216Y1927067D01*
X477599Y1927436D01*
X476991Y1927819D01*
X476392Y1928217D01*
X475803Y1928628D01*
X475224Y1929054D01*
X474655Y1929494D01*
X474097Y1929947D01*
X473550Y1930413D01*
X473014Y1930893D01*
X472490Y1931384D01*
X471978Y1931889D01*
X473756Y1972778D02*
X473760Y1973122D01*
X473773Y1973465D01*
X473793Y1973808D01*
X473822Y1974151D01*
X473860Y1974492D01*
X473905Y1974833D01*
X473959Y1975172D01*
X474021Y1975510D01*
X474091Y1975847D01*
X474169Y1976182D01*
X474256Y1976514D01*
X474350Y1976845D01*
X474452Y1977173D01*
X474562Y1977498D01*
X474680Y1977821D01*
X474806Y1978141D01*
X474939Y1978458D01*
X475080Y1978771D01*
X475229Y1979081D01*
X475385Y1979387D01*
X475548Y1979690D01*
X475719Y1979988D01*
X475897Y1980282D01*
X476082Y1980572D01*
X476274Y1980857D01*
X476472Y1981138D01*
X476678Y1981413D01*
X476890Y1981684D01*
X477108Y1981949D01*
X477333Y1982209D01*
X477564Y1982463D01*
X477801Y1982712D01*
X478044Y1982955D01*
X478293Y1983192D01*
X478547Y1983423D01*
X478807Y1983648D01*
X479072Y1983867D01*
X479343Y1984079D01*
X479619Y1984284D01*
X479899Y1984483D01*
X480184Y1984674D01*
X480474Y1984859D01*
X480768Y1985037D01*
X481066Y1985208D01*
X481369Y1985371D01*
X481675Y1985527D01*
X481985Y1985676D01*
X482298Y1985817D01*
X482615Y1985950D01*
X482935Y1986076D01*
X483258Y1986194D01*
X483583Y1986304D01*
X483911Y1986406D01*
X484242Y1986500D01*
X484575Y1986587D01*
X484909Y1986665D01*
X485246Y1986735D01*
X485584Y1986797D01*
X485923Y1986851D01*
X486264Y1986896D01*
X486605Y1986934D01*
X486948Y1986963D01*
X487291Y1986983D01*
X487634Y1986996D01*
X487978Y1987000D01*
X488614Y1986992D01*
X489249Y1986970D01*
X489883Y1986932D01*
X490517Y1986879D01*
X491149Y1986811D01*
X491779Y1986728D01*
X492407Y1986630D01*
X493032Y1986517D01*
X493654Y1986389D01*
X494274Y1986246D01*
X494890Y1986089D01*
X495501Y1985917D01*
X496109Y1985730D01*
X496712Y1985529D01*
X497310Y1985314D01*
X497902Y1985084D01*
X498489Y1984841D01*
X499071Y1984583D01*
X499645Y1984312D01*
X500213Y1984027D01*
X500775Y1983729D01*
X501329Y1983417D01*
X501875Y1983093D01*
X502413Y1982755D01*
X502944Y1982405D01*
X503465Y1982042D01*
X503978Y1981667D01*
X480867Y1960334D02*
X480569Y1960515D01*
X480275Y1960702D01*
X479986Y1960897D01*
X479701Y1961099D01*
X479422Y1961308D01*
X479147Y1961523D01*
X478878Y1961745D01*
X478614Y1961973D01*
X478356Y1962208D01*
X478104Y1962448D01*
X477858Y1962695D01*
X477617Y1962948D01*
X477383Y1963206D01*
X477155Y1963470D01*
X476933Y1963740D01*
X476718Y1964014D01*
X476510Y1964294D01*
X476309Y1964579D01*
X476114Y1964868D01*
X475927Y1965162D01*
X475747Y1965461D01*
X475574Y1965764D01*
X475408Y1966071D01*
X475250Y1966381D01*
X475099Y1966696D01*
X474956Y1967014D01*
X474821Y1967335D01*
X474693Y1967660D01*
X474573Y1967988D01*
X474462Y1968318D01*
X474358Y1968651D01*
X474263Y1968986D01*
X474175Y1969324D01*
X474096Y1969664D01*
X474025Y1970005D01*
X473962Y1970348D01*
X473907Y1970693D01*
X473861Y1971038D01*
X473823Y1971385D01*
X473794Y1971733D01*
X473773Y1972081D01*
X473760Y1972429D01*
X473756Y1972778D01*
X500422Y1949666D02*
X500720Y1949485D01*
X501014Y1949298D01*
X501304Y1949103D01*
X501588Y1948901D01*
X501867Y1948692D01*
X502142Y1948477D01*
X502411Y1948255D01*
X502675Y1948027D01*
X502933Y1947792D01*
X503185Y1947552D01*
X503431Y1947305D01*
X503672Y1947052D01*
X503906Y1946794D01*
X504134Y1946530D01*
X504356Y1946260D01*
X504571Y1945986D01*
X504779Y1945706D01*
X504980Y1945421D01*
X505175Y1945132D01*
X505362Y1944838D01*
X505542Y1944539D01*
X505716Y1944236D01*
X505881Y1943929D01*
X506039Y1943619D01*
X506190Y1943304D01*
X506333Y1942986D01*
X506468Y1942665D01*
X506596Y1942340D01*
X506716Y1942012D01*
X506827Y1941682D01*
X506931Y1941349D01*
X507026Y1941014D01*
X507114Y1940676D01*
X507193Y1940336D01*
X507264Y1939995D01*
X507327Y1939652D01*
X507382Y1939307D01*
X507428Y1938962D01*
X507466Y1938615D01*
X507495Y1938267D01*
X507516Y1937919D01*
X507529Y1937571D01*
X507533Y1937222D01*
X500422Y1949667D02*
X480867Y1960333D01*
X1584333Y1923000D02*
X1584677Y1923004D01*
X1585020Y1923017D01*
X1585363Y1923037D01*
X1585706Y1923066D01*
X1586047Y1923104D01*
X1586388Y1923149D01*
X1586727Y1923203D01*
X1587065Y1923265D01*
X1587402Y1923335D01*
X1587737Y1923413D01*
X1588069Y1923500D01*
X1588400Y1923594D01*
X1588728Y1923696D01*
X1589053Y1923806D01*
X1589376Y1923924D01*
X1589696Y1924050D01*
X1590013Y1924183D01*
X1590326Y1924324D01*
X1590636Y1924473D01*
X1590942Y1924629D01*
X1591245Y1924792D01*
X1591543Y1924963D01*
X1591837Y1925141D01*
X1592127Y1925326D01*
X1592412Y1925518D01*
X1592692Y1925716D01*
X1592968Y1925922D01*
X1593239Y1926133D01*
X1593504Y1926352D01*
X1593764Y1926577D01*
X1594018Y1926808D01*
X1594267Y1927045D01*
X1594510Y1927288D01*
X1594747Y1927537D01*
X1594978Y1927791D01*
X1595203Y1928051D01*
X1595422Y1928316D01*
X1595633Y1928587D01*
X1595839Y1928863D01*
X1596037Y1929143D01*
X1596229Y1929428D01*
X1596414Y1929718D01*
X1596592Y1930012D01*
X1596763Y1930310D01*
X1596926Y1930613D01*
X1597082Y1930919D01*
X1597231Y1931229D01*
X1597372Y1931542D01*
X1597505Y1931859D01*
X1597631Y1932179D01*
X1597749Y1932502D01*
X1597859Y1932827D01*
X1597961Y1933155D01*
X1598055Y1933486D01*
X1598142Y1933818D01*
X1598220Y1934153D01*
X1598290Y1934490D01*
X1598352Y1934828D01*
X1598406Y1935167D01*
X1598451Y1935508D01*
X1598489Y1935849D01*
X1598518Y1936192D01*
X1598538Y1936535D01*
X1598551Y1936878D01*
X1598555Y1937222D01*
X1584333Y1923000D02*
X1583614Y1923009D01*
X1582896Y1923034D01*
X1582178Y1923077D01*
X1581462Y1923137D01*
X1580747Y1923215D01*
X1580035Y1923309D01*
X1579324Y1923420D01*
X1578617Y1923549D01*
X1577913Y1923694D01*
X1577213Y1923856D01*
X1576516Y1924035D01*
X1575825Y1924230D01*
X1575138Y1924442D01*
X1574456Y1924670D01*
X1573780Y1924914D01*
X1573110Y1925175D01*
X1572446Y1925451D01*
X1571790Y1925744D01*
X1571140Y1926051D01*
X1570498Y1926375D01*
X1569864Y1926713D01*
X1569238Y1927067D01*
X1568621Y1927436D01*
X1568013Y1927819D01*
X1567414Y1928217D01*
X1566825Y1928628D01*
X1566246Y1929054D01*
X1565677Y1929494D01*
X1565119Y1929947D01*
X1564572Y1930413D01*
X1564036Y1930893D01*
X1563512Y1931384D01*
X1563000Y1931889D01*
X1564778Y1972778D02*
X1564782Y1973122D01*
X1564795Y1973465D01*
X1564815Y1973808D01*
X1564844Y1974151D01*
X1564882Y1974492D01*
X1564927Y1974833D01*
X1564981Y1975172D01*
X1565043Y1975510D01*
X1565113Y1975847D01*
X1565191Y1976182D01*
X1565278Y1976514D01*
X1565372Y1976845D01*
X1565474Y1977173D01*
X1565584Y1977498D01*
X1565702Y1977821D01*
X1565828Y1978141D01*
X1565961Y1978458D01*
X1566102Y1978771D01*
X1566251Y1979081D01*
X1566407Y1979387D01*
X1566570Y1979690D01*
X1566741Y1979988D01*
X1566919Y1980282D01*
X1567104Y1980572D01*
X1567296Y1980857D01*
X1567494Y1981138D01*
X1567700Y1981413D01*
X1567912Y1981684D01*
X1568130Y1981949D01*
X1568355Y1982209D01*
X1568586Y1982463D01*
X1568823Y1982712D01*
X1569066Y1982955D01*
X1569315Y1983192D01*
X1569569Y1983423D01*
X1569829Y1983648D01*
X1570094Y1983867D01*
X1570365Y1984079D01*
X1570641Y1984284D01*
X1570921Y1984483D01*
X1571206Y1984674D01*
X1571496Y1984859D01*
X1571790Y1985037D01*
X1572088Y1985208D01*
X1572391Y1985371D01*
X1572697Y1985527D01*
X1573007Y1985676D01*
X1573320Y1985817D01*
X1573637Y1985950D01*
X1573957Y1986076D01*
X1574280Y1986194D01*
X1574605Y1986304D01*
X1574933Y1986406D01*
X1575264Y1986500D01*
X1575597Y1986587D01*
X1575931Y1986665D01*
X1576268Y1986735D01*
X1576606Y1986797D01*
X1576945Y1986851D01*
X1577286Y1986896D01*
X1577627Y1986934D01*
X1577970Y1986963D01*
X1578313Y1986983D01*
X1578656Y1986996D01*
X1579000Y1987000D01*
X1579636Y1986992D01*
X1580271Y1986970D01*
X1580905Y1986932D01*
X1581539Y1986879D01*
X1582171Y1986811D01*
X1582801Y1986728D01*
X1583429Y1986630D01*
X1584054Y1986517D01*
X1584676Y1986389D01*
X1585296Y1986246D01*
X1585912Y1986089D01*
X1586523Y1985917D01*
X1587131Y1985730D01*
X1587734Y1985529D01*
X1588332Y1985314D01*
X1588924Y1985084D01*
X1589511Y1984841D01*
X1590093Y1984583D01*
X1590667Y1984312D01*
X1591235Y1984027D01*
X1591797Y1983729D01*
X1592351Y1983417D01*
X1592897Y1983093D01*
X1593435Y1982755D01*
X1593966Y1982405D01*
X1594487Y1982042D01*
X1595000Y1981667D01*
X1571889Y1960334D02*
X1571591Y1960515D01*
X1571297Y1960702D01*
X1571008Y1960897D01*
X1570723Y1961099D01*
X1570444Y1961308D01*
X1570169Y1961523D01*
X1569900Y1961745D01*
X1569636Y1961973D01*
X1569378Y1962208D01*
X1569126Y1962448D01*
X1568880Y1962695D01*
X1568639Y1962948D01*
X1568405Y1963206D01*
X1568177Y1963470D01*
X1567955Y1963740D01*
X1567740Y1964014D01*
X1567532Y1964294D01*
X1567331Y1964579D01*
X1567136Y1964868D01*
X1566949Y1965162D01*
X1566769Y1965461D01*
X1566596Y1965764D01*
X1566430Y1966071D01*
X1566272Y1966381D01*
X1566121Y1966696D01*
X1565978Y1967014D01*
X1565843Y1967335D01*
X1565715Y1967660D01*
X1565595Y1967988D01*
X1565484Y1968318D01*
X1565380Y1968651D01*
X1565285Y1968986D01*
X1565197Y1969324D01*
X1565118Y1969664D01*
X1565047Y1970005D01*
X1564984Y1970348D01*
X1564929Y1970693D01*
X1564883Y1971038D01*
X1564845Y1971385D01*
X1564816Y1971733D01*
X1564795Y1972081D01*
X1564782Y1972429D01*
X1564778Y1972778D01*
X1591444Y1949666D02*
X1591742Y1949485D01*
X1592036Y1949298D01*
X1592326Y1949103D01*
X1592610Y1948901D01*
X1592889Y1948692D01*
X1593164Y1948477D01*
X1593433Y1948255D01*
X1593697Y1948027D01*
X1593955Y1947792D01*
X1594207Y1947552D01*
X1594453Y1947305D01*
X1594694Y1947052D01*
X1594928Y1946794D01*
X1595156Y1946530D01*
X1595378Y1946260D01*
X1595593Y1945986D01*
X1595801Y1945706D01*
X1596002Y1945421D01*
X1596197Y1945132D01*
X1596384Y1944838D01*
X1596564Y1944539D01*
X1596738Y1944236D01*
X1596903Y1943929D01*
X1597061Y1943619D01*
X1597212Y1943304D01*
X1597355Y1942986D01*
X1597490Y1942665D01*
X1597618Y1942340D01*
X1597738Y1942012D01*
X1597849Y1941682D01*
X1597953Y1941349D01*
X1598048Y1941014D01*
X1598136Y1940676D01*
X1598215Y1940336D01*
X1598286Y1939995D01*
X1598349Y1939652D01*
X1598404Y1939307D01*
X1598450Y1938962D01*
X1598488Y1938615D01*
X1598517Y1938267D01*
X1598538Y1937919D01*
X1598551Y1937571D01*
X1598555Y1937222D01*
X1591444Y1949667D02*
X1571889Y1960333D01*
X1622489Y1979889D02*
X1622489Y1987000D01*
X1658044Y1987000D01*
X1640267Y1923000D01*
X1703311Y1923000D02*
X1703655Y1923004D01*
X1703998Y1923017D01*
X1704341Y1923037D01*
X1704684Y1923066D01*
X1705025Y1923104D01*
X1705366Y1923149D01*
X1705705Y1923203D01*
X1706043Y1923265D01*
X1706380Y1923335D01*
X1706715Y1923413D01*
X1707047Y1923500D01*
X1707378Y1923594D01*
X1707706Y1923696D01*
X1708031Y1923806D01*
X1708354Y1923924D01*
X1708674Y1924050D01*
X1708991Y1924183D01*
X1709304Y1924324D01*
X1709614Y1924473D01*
X1709920Y1924629D01*
X1710223Y1924792D01*
X1710521Y1924963D01*
X1710815Y1925141D01*
X1711105Y1925326D01*
X1711390Y1925518D01*
X1711670Y1925716D01*
X1711946Y1925922D01*
X1712217Y1926133D01*
X1712482Y1926352D01*
X1712742Y1926577D01*
X1712996Y1926808D01*
X1713245Y1927045D01*
X1713488Y1927288D01*
X1713725Y1927537D01*
X1713956Y1927791D01*
X1714181Y1928051D01*
X1714400Y1928316D01*
X1714611Y1928587D01*
X1714817Y1928863D01*
X1715015Y1929143D01*
X1715207Y1929428D01*
X1715392Y1929718D01*
X1715570Y1930012D01*
X1715741Y1930310D01*
X1715904Y1930613D01*
X1716060Y1930919D01*
X1716209Y1931229D01*
X1716350Y1931542D01*
X1716483Y1931859D01*
X1716609Y1932179D01*
X1716727Y1932502D01*
X1716837Y1932827D01*
X1716939Y1933155D01*
X1717033Y1933486D01*
X1717120Y1933818D01*
X1717198Y1934153D01*
X1717268Y1934490D01*
X1717330Y1934828D01*
X1717384Y1935167D01*
X1717429Y1935508D01*
X1717467Y1935849D01*
X1717496Y1936192D01*
X1717516Y1936535D01*
X1717529Y1936878D01*
X1717533Y1937222D01*
X1703311Y1923000D02*
X1702592Y1923009D01*
X1701874Y1923034D01*
X1701156Y1923077D01*
X1700440Y1923137D01*
X1699725Y1923215D01*
X1699013Y1923309D01*
X1698302Y1923420D01*
X1697595Y1923549D01*
X1696891Y1923694D01*
X1696191Y1923856D01*
X1695494Y1924035D01*
X1694803Y1924230D01*
X1694116Y1924442D01*
X1693434Y1924670D01*
X1692758Y1924914D01*
X1692088Y1925175D01*
X1691424Y1925451D01*
X1690768Y1925744D01*
X1690118Y1926051D01*
X1689476Y1926375D01*
X1688842Y1926713D01*
X1688216Y1927067D01*
X1687599Y1927436D01*
X1686991Y1927819D01*
X1686392Y1928217D01*
X1685803Y1928628D01*
X1685224Y1929054D01*
X1684655Y1929494D01*
X1684097Y1929947D01*
X1683550Y1930413D01*
X1683014Y1930893D01*
X1682490Y1931384D01*
X1681978Y1931889D01*
X1683756Y1972778D02*
X1683760Y1973122D01*
X1683773Y1973465D01*
X1683793Y1973808D01*
X1683822Y1974151D01*
X1683860Y1974492D01*
X1683905Y1974833D01*
X1683959Y1975172D01*
X1684021Y1975510D01*
X1684091Y1975847D01*
X1684169Y1976182D01*
X1684256Y1976514D01*
X1684350Y1976845D01*
X1684452Y1977173D01*
X1684562Y1977498D01*
X1684680Y1977821D01*
X1684806Y1978141D01*
X1684939Y1978458D01*
X1685080Y1978771D01*
X1685229Y1979081D01*
X1685385Y1979387D01*
X1685548Y1979690D01*
X1685719Y1979988D01*
X1685897Y1980282D01*
X1686082Y1980572D01*
X1686274Y1980857D01*
X1686472Y1981138D01*
X1686678Y1981413D01*
X1686890Y1981684D01*
X1687108Y1981949D01*
X1687333Y1982209D01*
X1687564Y1982463D01*
X1687801Y1982712D01*
X1688044Y1982955D01*
X1688293Y1983192D01*
X1688547Y1983423D01*
X1688807Y1983648D01*
X1689072Y1983867D01*
X1689343Y1984079D01*
X1689619Y1984284D01*
X1689899Y1984483D01*
X1690184Y1984674D01*
X1690474Y1984859D01*
X1690768Y1985037D01*
X1691066Y1985208D01*
X1691369Y1985371D01*
X1691675Y1985527D01*
X1691985Y1985676D01*
X1692298Y1985817D01*
X1692615Y1985950D01*
X1692935Y1986076D01*
X1693258Y1986194D01*
X1693583Y1986304D01*
X1693911Y1986406D01*
X1694242Y1986500D01*
X1694575Y1986587D01*
X1694909Y1986665D01*
X1695246Y1986735D01*
X1695584Y1986797D01*
X1695923Y1986851D01*
X1696264Y1986896D01*
X1696605Y1986934D01*
X1696948Y1986963D01*
X1697291Y1986983D01*
X1697634Y1986996D01*
X1697978Y1987000D01*
X1698614Y1986992D01*
X1699249Y1986970D01*
X1699883Y1986932D01*
X1700517Y1986879D01*
X1701149Y1986811D01*
X1701779Y1986728D01*
X1702407Y1986630D01*
X1703032Y1986517D01*
X1703654Y1986389D01*
X1704274Y1986246D01*
X1704890Y1986089D01*
X1705501Y1985917D01*
X1706109Y1985730D01*
X1706712Y1985529D01*
X1707310Y1985314D01*
X1707902Y1985084D01*
X1708489Y1984841D01*
X1709071Y1984583D01*
X1709645Y1984312D01*
X1710213Y1984027D01*
X1710775Y1983729D01*
X1711329Y1983417D01*
X1711875Y1983093D01*
X1712413Y1982755D01*
X1712944Y1982405D01*
X1713465Y1982042D01*
X1713978Y1981667D01*
X1690867Y1960334D02*
X1690569Y1960515D01*
X1690275Y1960702D01*
X1689986Y1960897D01*
X1689701Y1961099D01*
X1689422Y1961308D01*
X1689147Y1961523D01*
X1688878Y1961745D01*
X1688614Y1961973D01*
X1688356Y1962208D01*
X1688104Y1962448D01*
X1687858Y1962695D01*
X1687617Y1962948D01*
X1687383Y1963206D01*
X1687155Y1963470D01*
X1686933Y1963740D01*
X1686718Y1964014D01*
X1686510Y1964294D01*
X1686309Y1964579D01*
X1686114Y1964868D01*
X1685927Y1965162D01*
X1685747Y1965461D01*
X1685574Y1965764D01*
X1685408Y1966071D01*
X1685250Y1966381D01*
X1685099Y1966696D01*
X1684956Y1967014D01*
X1684821Y1967335D01*
X1684693Y1967660D01*
X1684573Y1967988D01*
X1684462Y1968318D01*
X1684358Y1968651D01*
X1684263Y1968986D01*
X1684175Y1969324D01*
X1684096Y1969664D01*
X1684025Y1970005D01*
X1683962Y1970348D01*
X1683907Y1970693D01*
X1683861Y1971038D01*
X1683823Y1971385D01*
X1683794Y1971733D01*
X1683773Y1972081D01*
X1683760Y1972429D01*
X1683756Y1972778D01*
X1710422Y1949666D02*
X1710720Y1949485D01*
X1711014Y1949298D01*
X1711304Y1949103D01*
X1711588Y1948901D01*
X1711867Y1948692D01*
X1712142Y1948477D01*
X1712411Y1948255D01*
X1712675Y1948027D01*
X1712933Y1947792D01*
X1713185Y1947552D01*
X1713431Y1947305D01*
X1713672Y1947052D01*
X1713906Y1946794D01*
X1714134Y1946530D01*
X1714356Y1946260D01*
X1714571Y1945986D01*
X1714779Y1945706D01*
X1714980Y1945421D01*
X1715175Y1945132D01*
X1715362Y1944838D01*
X1715542Y1944539D01*
X1715716Y1944236D01*
X1715881Y1943929D01*
X1716039Y1943619D01*
X1716190Y1943304D01*
X1716333Y1942986D01*
X1716468Y1942665D01*
X1716596Y1942340D01*
X1716716Y1942012D01*
X1716827Y1941682D01*
X1716931Y1941349D01*
X1717026Y1941014D01*
X1717114Y1940676D01*
X1717193Y1940336D01*
X1717264Y1939995D01*
X1717327Y1939652D01*
X1717382Y1939307D01*
X1717428Y1938962D01*
X1717466Y1938615D01*
X1717495Y1938267D01*
X1717516Y1937919D01*
X1717529Y1937571D01*
X1717533Y1937222D01*
X1710422Y1949667D02*
X1690867Y1960333D01*
D12*
X110000Y2090000D02*
X110000Y400000D01*
X110000Y2090000D02*
X1182000Y2090000D01*
X1182000Y400000D01*
X110000Y400000D01*
X210000Y1900000D02*
X210000Y2000000D01*
X210000Y1900000D02*
X310000Y1900000D01*
X310000Y2000000D01*
X210000Y2000000D01*
X1310000Y2090000D02*
X1310000Y400000D01*
X1310000Y2090000D02*
X2382000Y2090000D01*
X2382000Y400000D01*
X1310000Y400000D01*
X1410000Y1900000D02*
X1410000Y2000000D01*
X1410000Y1900000D02*
X1510000Y1900000D01*
X1510000Y2000000D01*
X1410000Y2000000D01*
D13*
G36*
X93926Y288054D02*
X88359Y282487D01*
X82792Y288054D01*
X88359Y293621D01*
X93926Y288054D01*
G37*
G36*
X105061Y299190D02*
X99494Y293623D01*
X93927Y299190D01*
X99494Y304757D01*
X105061Y299190D01*
G37*
G36*
X116197Y310325D02*
X110630Y304758D01*
X105063Y310325D01*
X110630Y315892D01*
X116197Y310325D01*
G37*
G36*
X127332Y321461D02*
X121765Y315894D01*
X116198Y321461D01*
X121765Y327028D01*
X127332Y321461D01*
G37*
G36*
X138468Y332596D02*
X132901Y327029D01*
X127334Y332596D01*
X132901Y338163D01*
X138468Y332596D01*
G37*
D14*
G36*
X149604Y332596D02*
X88360Y271352D01*
X82792Y276920D01*
X144036Y338164D01*
X149604Y332596D01*
G37*
D13*
G36*
X171875Y332596D02*
X166308Y327029D01*
X160741Y332596D01*
X166308Y338163D01*
X171875Y332596D01*
G37*
G36*
X183010Y321461D02*
X177443Y315894D01*
X171876Y321461D01*
X177443Y327028D01*
X183010Y321461D01*
G37*
G36*
X194146Y310325D02*
X188579Y304758D01*
X183012Y310325D01*
X188579Y315892D01*
X194146Y310325D01*
G37*
G36*
X205281Y299190D02*
X199714Y293623D01*
X194147Y299190D01*
X199714Y304757D01*
X205281Y299190D01*
G37*
G36*
X216417Y288054D02*
X210850Y282487D01*
X205283Y288054D01*
X210850Y293621D01*
X216417Y288054D01*
G37*
D15*
G36*
X216417Y276920D02*
X210849Y271352D01*
X149605Y332596D01*
X155173Y338164D01*
X216417Y276920D01*
G37*
D14*
G36*
X216417Y265782D02*
X155173Y204538D01*
X149605Y210106D01*
X210849Y271350D01*
X216417Y265782D01*
G37*
D15*
G36*
X149604Y210106D02*
X144036Y204538D01*
X82792Y265782D01*
X88360Y271350D01*
X149604Y210106D01*
G37*
D13*
G36*
X93926Y254648D02*
X88359Y249081D01*
X82792Y254648D01*
X88359Y260215D01*
X93926Y254648D01*
G37*
G36*
X105061Y243512D02*
X99494Y237945D01*
X93927Y243512D01*
X99494Y249079D01*
X105061Y243512D01*
G37*
G36*
X116197Y232377D02*
X110630Y226810D01*
X105063Y232377D01*
X110630Y237944D01*
X116197Y232377D01*
G37*
G36*
X127332Y221241D02*
X121765Y215674D01*
X116198Y221241D01*
X121765Y226808D01*
X127332Y221241D01*
G37*
G36*
X138468Y210106D02*
X132901Y204539D01*
X127334Y210106D01*
X132901Y215673D01*
X138468Y210106D01*
G37*
G36*
X171875Y210106D02*
X166308Y204539D01*
X160741Y210106D01*
X166308Y215673D01*
X171875Y210106D01*
G37*
G36*
X183010Y221241D02*
X177443Y215674D01*
X171876Y221241D01*
X177443Y226808D01*
X183010Y221241D01*
G37*
G36*
X194146Y232377D02*
X188579Y226810D01*
X183012Y232377D01*
X188579Y237944D01*
X194146Y232377D01*
G37*
G36*
X205281Y243512D02*
X199714Y237945D01*
X194147Y243512D01*
X199714Y249079D01*
X205281Y243512D01*
G37*
G36*
X216417Y254648D02*
X210850Y249081D01*
X205283Y254648D01*
X210850Y260215D01*
X216417Y254648D01*
G37*
D16*
G36*
X155172Y315892D02*
X138470Y299190D01*
X132902Y304758D01*
X149604Y321460D01*
X155172Y315892D01*
G37*
D17*
G36*
X155171Y293623D02*
X149603Y288055D01*
X138469Y299189D01*
X144037Y304757D01*
X155171Y293623D01*
G37*
D18*
G36*
X166307Y304757D02*
X155173Y293623D01*
X149605Y299191D01*
X160739Y310325D01*
X166307Y304757D01*
G37*
D13*
G36*
X160739Y310325D02*
X155172Y304758D01*
X149605Y310325D01*
X155172Y315892D01*
X160739Y310325D01*
G37*
D16*
G36*
X166307Y237944D02*
X149605Y221242D01*
X144037Y226810D01*
X160739Y243512D01*
X166307Y237944D01*
G37*
D17*
G36*
X160739Y243513D02*
X155171Y237945D01*
X144037Y249079D01*
X149605Y254647D01*
X160739Y243513D01*
G37*
D18*
G36*
X149604Y243511D02*
X138470Y232377D01*
X132902Y237945D01*
X144036Y249079D01*
X149604Y243511D01*
G37*
D13*
G36*
X149604Y232377D02*
X144037Y226810D01*
X138470Y232377D01*
X144037Y237944D01*
X149604Y232377D01*
G37*
D19*
G36*
X183010Y265783D02*
X160740Y243513D01*
X155172Y249081D01*
X177442Y271351D01*
X183010Y265783D01*
G37*
D20*
G36*
X177443Y271352D02*
X171875Y265784D01*
X155173Y282486D01*
X160741Y288054D01*
X177443Y271352D01*
G37*
D19*
G36*
X160739Y276918D02*
X138469Y254648D01*
X132901Y260216D01*
X155171Y282486D01*
X160739Y276918D01*
G37*
D20*
G36*
X138468Y265784D02*
X132900Y260216D01*
X116198Y276918D01*
X121766Y282486D01*
X138468Y265784D01*
G37*
D16*
G36*
X144036Y293621D02*
X127334Y276919D01*
X121766Y282487D01*
X138468Y299189D01*
X144036Y293621D01*
G37*
D11*
X780000Y120000D02*
X780000Y20000D01*
X780000Y120000D02*
X690000Y120000D01*
X680000Y110000D01*
X670000Y120000D01*
X590000Y120000D01*
X580000Y110000D01*
X570000Y120000D01*
X490000Y120000D01*
X480000Y110000D01*
X470000Y120000D01*
X390000Y120000D01*
X380000Y110000D01*
X370000Y120000D01*
X280000Y120000D01*
X280000Y20000D01*
X370000Y20000D01*
X380000Y30000D01*
X390000Y20000D01*
X470000Y20000D01*
X480000Y30000D01*
X490000Y20000D01*
X570000Y20000D01*
X580000Y30000D01*
X590000Y20000D01*
X670000Y20000D01*
X680000Y30000D01*
X690000Y20000D01*
X780000Y20000D01*
D12*
X797500Y82500D02*
X810000Y92500D01*
X810000Y47500D01*
X797500Y47500D02*
X822500Y47500D01*
X257500Y47500D02*
X242500Y47500D01*
X257500Y47500D02*
X257742Y47503D01*
X257983Y47512D01*
X258224Y47526D01*
X258465Y47547D01*
X258705Y47573D01*
X258945Y47605D01*
X259184Y47643D01*
X259421Y47686D01*
X259658Y47736D01*
X259893Y47791D01*
X260127Y47851D01*
X260359Y47918D01*
X260590Y47989D01*
X260819Y48067D01*
X261046Y48150D01*
X261271Y48238D01*
X261494Y48332D01*
X261714Y48431D01*
X261932Y48536D01*
X262147Y48645D01*
X262360Y48760D01*
X262570Y48880D01*
X262776Y49005D01*
X262980Y49135D01*
X263181Y49270D01*
X263378Y49410D01*
X263572Y49554D01*
X263762Y49703D01*
X263948Y49857D01*
X264131Y50015D01*
X264310Y50177D01*
X264485Y50344D01*
X264656Y50515D01*
X264823Y50690D01*
X264985Y50869D01*
X265143Y51052D01*
X265297Y51238D01*
X265446Y51428D01*
X265590Y51622D01*
X265730Y51819D01*
X265865Y52020D01*
X265995Y52224D01*
X266120Y52430D01*
X266240Y52640D01*
X266355Y52853D01*
X266464Y53068D01*
X266569Y53286D01*
X266668Y53506D01*
X266762Y53729D01*
X266850Y53954D01*
X266933Y54181D01*
X267011Y54410D01*
X267082Y54641D01*
X267149Y54873D01*
X267209Y55107D01*
X267264Y55342D01*
X267314Y55579D01*
X267357Y55816D01*
X267395Y56055D01*
X267427Y56295D01*
X267453Y56535D01*
X267474Y56776D01*
X267488Y57017D01*
X267497Y57258D01*
X267500Y57500D01*
X267500Y62500D01*
X267497Y62742D01*
X267488Y62983D01*
X267474Y63224D01*
X267453Y63465D01*
X267427Y63705D01*
X267395Y63945D01*
X267357Y64184D01*
X267314Y64421D01*
X267264Y64658D01*
X267209Y64893D01*
X267149Y65127D01*
X267082Y65359D01*
X267011Y65590D01*
X266933Y65819D01*
X266850Y66046D01*
X266762Y66271D01*
X266668Y66494D01*
X266569Y66714D01*
X266464Y66932D01*
X266355Y67147D01*
X266240Y67360D01*
X266120Y67570D01*
X265995Y67776D01*
X265865Y67980D01*
X265730Y68181D01*
X265590Y68378D01*
X265446Y68572D01*
X265297Y68762D01*
X265143Y68948D01*
X264985Y69131D01*
X264823Y69310D01*
X264656Y69485D01*
X264485Y69656D01*
X264310Y69823D01*
X264131Y69985D01*
X263948Y70143D01*
X263762Y70297D01*
X263572Y70446D01*
X263378Y70590D01*
X263181Y70730D01*
X262980Y70865D01*
X262776Y70995D01*
X262570Y71120D01*
X262360Y71240D01*
X262147Y71355D01*
X261932Y71464D01*
X261714Y71569D01*
X261494Y71668D01*
X261271Y71762D01*
X261046Y71850D01*
X260819Y71933D01*
X260590Y72011D01*
X260359Y72082D01*
X260127Y72149D01*
X259893Y72209D01*
X259658Y72264D01*
X259421Y72314D01*
X259184Y72357D01*
X258945Y72395D01*
X258705Y72427D01*
X258465Y72453D01*
X258224Y72474D01*
X257983Y72488D01*
X257742Y72497D01*
X257500Y72500D01*
X242500Y72500D01*
X242500Y92500D01*
X267500Y92500D01*
D21*
X1870036Y1442000D02*
X1880258Y1442000D01*
X1870036Y1442000D02*
X1869789Y1442003D01*
X1869542Y1442012D01*
X1869296Y1442027D01*
X1869049Y1442048D01*
X1868804Y1442075D01*
X1868559Y1442107D01*
X1868315Y1442146D01*
X1868072Y1442190D01*
X1867830Y1442241D01*
X1867590Y1442297D01*
X1867351Y1442359D01*
X1867113Y1442427D01*
X1866877Y1442500D01*
X1866643Y1442579D01*
X1866411Y1442664D01*
X1866181Y1442755D01*
X1865954Y1442851D01*
X1865728Y1442952D01*
X1865506Y1443059D01*
X1865286Y1443171D01*
X1865068Y1443288D01*
X1864854Y1443411D01*
X1864642Y1443539D01*
X1864434Y1443672D01*
X1864229Y1443809D01*
X1864028Y1443952D01*
X1863830Y1444100D01*
X1863635Y1444252D01*
X1863444Y1444409D01*
X1863258Y1444571D01*
X1863075Y1444737D01*
X1862896Y1444907D01*
X1862721Y1445082D01*
X1862551Y1445261D01*
X1862385Y1445444D01*
X1862223Y1445630D01*
X1862066Y1445821D01*
X1861914Y1446016D01*
X1861766Y1446214D01*
X1861623Y1446415D01*
X1861486Y1446620D01*
X1861353Y1446828D01*
X1861225Y1447040D01*
X1861102Y1447254D01*
X1860985Y1447472D01*
X1860873Y1447692D01*
X1860766Y1447914D01*
X1860665Y1448140D01*
X1860569Y1448367D01*
X1860478Y1448597D01*
X1860393Y1448829D01*
X1860314Y1449063D01*
X1860241Y1449299D01*
X1860173Y1449537D01*
X1860111Y1449776D01*
X1860055Y1450016D01*
X1860004Y1450258D01*
X1859960Y1450501D01*
X1859921Y1450745D01*
X1859889Y1450990D01*
X1859862Y1451235D01*
X1859841Y1451482D01*
X1859826Y1451728D01*
X1859817Y1451975D01*
X1859814Y1452222D01*
X1859814Y1477778D01*
X1859817Y1478029D01*
X1859826Y1478280D01*
X1859842Y1478530D01*
X1859863Y1478780D01*
X1859891Y1479029D01*
X1859925Y1479278D01*
X1859964Y1479526D01*
X1860010Y1479772D01*
X1860062Y1480018D01*
X1860120Y1480262D01*
X1860184Y1480504D01*
X1860254Y1480745D01*
X1860330Y1480984D01*
X1860412Y1481222D01*
X1860499Y1481457D01*
X1860592Y1481690D01*
X1860691Y1481920D01*
X1860795Y1482148D01*
X1860905Y1482374D01*
X1861021Y1482597D01*
X1861142Y1482816D01*
X1861268Y1483033D01*
X1861400Y1483247D01*
X1861537Y1483457D01*
X1861679Y1483664D01*
X1861826Y1483867D01*
X1861977Y1484067D01*
X1862134Y1484263D01*
X1862296Y1484455D01*
X1862462Y1484643D01*
X1862633Y1484826D01*
X1862808Y1485006D01*
X1862987Y1485181D01*
X1863171Y1485352D01*
X1863359Y1485518D01*
X1863551Y1485680D01*
X1863747Y1485836D01*
X1863947Y1485988D01*
X1864150Y1486135D01*
X1864357Y1486277D01*
X1864567Y1486414D01*
X1864781Y1486546D01*
X1864998Y1486672D01*
X1865217Y1486793D01*
X1865440Y1486908D01*
X1865665Y1487019D01*
X1865894Y1487123D01*
X1866124Y1487222D01*
X1866357Y1487315D01*
X1866592Y1487402D01*
X1866829Y1487484D01*
X1867069Y1487560D01*
X1867310Y1487630D01*
X1867552Y1487694D01*
X1867796Y1487752D01*
X1868042Y1487804D01*
X1868288Y1487849D01*
X1868536Y1487889D01*
X1868785Y1487923D01*
X1869034Y1487951D01*
X1869284Y1487972D01*
X1869534Y1487988D01*
X1869785Y1487997D01*
X1870036Y1488000D01*
X1880258Y1488000D01*
X1907667Y1488000D02*
X1897445Y1452222D01*
X1923000Y1452222D01*
X1915333Y1462444D02*
X1915333Y1442000D01*
X1371872Y1767630D02*
X1361650Y1767630D01*
X1361403Y1767633D01*
X1361156Y1767642D01*
X1360910Y1767657D01*
X1360663Y1767678D01*
X1360418Y1767705D01*
X1360173Y1767737D01*
X1359929Y1767776D01*
X1359686Y1767820D01*
X1359444Y1767871D01*
X1359204Y1767927D01*
X1358965Y1767989D01*
X1358727Y1768057D01*
X1358491Y1768130D01*
X1358257Y1768209D01*
X1358025Y1768294D01*
X1357795Y1768385D01*
X1357568Y1768481D01*
X1357342Y1768582D01*
X1357120Y1768689D01*
X1356900Y1768801D01*
X1356682Y1768918D01*
X1356468Y1769041D01*
X1356256Y1769169D01*
X1356048Y1769302D01*
X1355843Y1769439D01*
X1355642Y1769582D01*
X1355444Y1769730D01*
X1355249Y1769882D01*
X1355058Y1770039D01*
X1354872Y1770201D01*
X1354689Y1770367D01*
X1354510Y1770537D01*
X1354335Y1770712D01*
X1354165Y1770891D01*
X1353999Y1771074D01*
X1353837Y1771260D01*
X1353680Y1771451D01*
X1353528Y1771646D01*
X1353380Y1771844D01*
X1353237Y1772045D01*
X1353100Y1772250D01*
X1352967Y1772458D01*
X1352839Y1772670D01*
X1352716Y1772884D01*
X1352599Y1773102D01*
X1352487Y1773322D01*
X1352380Y1773544D01*
X1352279Y1773770D01*
X1352183Y1773997D01*
X1352092Y1774227D01*
X1352007Y1774459D01*
X1351928Y1774693D01*
X1351855Y1774929D01*
X1351787Y1775167D01*
X1351725Y1775406D01*
X1351669Y1775646D01*
X1351618Y1775888D01*
X1351574Y1776131D01*
X1351535Y1776375D01*
X1351503Y1776620D01*
X1351476Y1776865D01*
X1351455Y1777112D01*
X1351440Y1777358D01*
X1351431Y1777605D01*
X1351428Y1777852D01*
X1351428Y1803408D01*
X1351431Y1803659D01*
X1351440Y1803910D01*
X1351456Y1804160D01*
X1351477Y1804410D01*
X1351505Y1804659D01*
X1351539Y1804908D01*
X1351578Y1805156D01*
X1351624Y1805402D01*
X1351676Y1805648D01*
X1351734Y1805892D01*
X1351798Y1806134D01*
X1351868Y1806375D01*
X1351944Y1806614D01*
X1352026Y1806852D01*
X1352113Y1807087D01*
X1352206Y1807320D01*
X1352305Y1807550D01*
X1352409Y1807778D01*
X1352519Y1808004D01*
X1352635Y1808227D01*
X1352756Y1808446D01*
X1352882Y1808663D01*
X1353014Y1808877D01*
X1353151Y1809087D01*
X1353293Y1809294D01*
X1353440Y1809497D01*
X1353591Y1809697D01*
X1353748Y1809893D01*
X1353910Y1810085D01*
X1354076Y1810273D01*
X1354247Y1810456D01*
X1354422Y1810636D01*
X1354601Y1810811D01*
X1354785Y1810982D01*
X1354973Y1811148D01*
X1355165Y1811310D01*
X1355361Y1811466D01*
X1355561Y1811618D01*
X1355764Y1811765D01*
X1355971Y1811907D01*
X1356181Y1812044D01*
X1356395Y1812176D01*
X1356612Y1812302D01*
X1356831Y1812423D01*
X1357054Y1812538D01*
X1357279Y1812649D01*
X1357508Y1812753D01*
X1357738Y1812852D01*
X1357971Y1812945D01*
X1358206Y1813032D01*
X1358443Y1813114D01*
X1358683Y1813190D01*
X1358924Y1813260D01*
X1359166Y1813324D01*
X1359410Y1813382D01*
X1359656Y1813434D01*
X1359902Y1813479D01*
X1360150Y1813519D01*
X1360399Y1813553D01*
X1360648Y1813581D01*
X1360898Y1813602D01*
X1361148Y1813618D01*
X1361399Y1813627D01*
X1361650Y1813630D01*
X1371872Y1813630D01*
X1389059Y1767630D02*
X1404392Y1767630D01*
X1404639Y1767633D01*
X1404886Y1767642D01*
X1405132Y1767657D01*
X1405379Y1767678D01*
X1405624Y1767705D01*
X1405869Y1767737D01*
X1406113Y1767776D01*
X1406356Y1767820D01*
X1406598Y1767871D01*
X1406838Y1767927D01*
X1407077Y1767989D01*
X1407315Y1768057D01*
X1407551Y1768130D01*
X1407785Y1768209D01*
X1408017Y1768294D01*
X1408247Y1768385D01*
X1408474Y1768481D01*
X1408700Y1768582D01*
X1408922Y1768689D01*
X1409142Y1768801D01*
X1409360Y1768918D01*
X1409574Y1769041D01*
X1409786Y1769169D01*
X1409994Y1769302D01*
X1410199Y1769439D01*
X1410400Y1769582D01*
X1410598Y1769730D01*
X1410793Y1769882D01*
X1410984Y1770039D01*
X1411170Y1770201D01*
X1411353Y1770367D01*
X1411532Y1770537D01*
X1411707Y1770712D01*
X1411877Y1770891D01*
X1412043Y1771074D01*
X1412205Y1771260D01*
X1412362Y1771451D01*
X1412514Y1771646D01*
X1412662Y1771844D01*
X1412805Y1772045D01*
X1412942Y1772250D01*
X1413075Y1772458D01*
X1413203Y1772670D01*
X1413326Y1772884D01*
X1413443Y1773102D01*
X1413555Y1773322D01*
X1413662Y1773544D01*
X1413763Y1773770D01*
X1413859Y1773997D01*
X1413950Y1774227D01*
X1414035Y1774459D01*
X1414114Y1774693D01*
X1414187Y1774929D01*
X1414255Y1775167D01*
X1414317Y1775406D01*
X1414373Y1775646D01*
X1414424Y1775888D01*
X1414468Y1776131D01*
X1414507Y1776375D01*
X1414539Y1776620D01*
X1414566Y1776865D01*
X1414587Y1777112D01*
X1414602Y1777358D01*
X1414611Y1777605D01*
X1414614Y1777852D01*
X1414614Y1782963D01*
X1414611Y1783210D01*
X1414602Y1783457D01*
X1414587Y1783703D01*
X1414566Y1783950D01*
X1414539Y1784195D01*
X1414507Y1784440D01*
X1414468Y1784684D01*
X1414424Y1784927D01*
X1414373Y1785169D01*
X1414317Y1785409D01*
X1414255Y1785648D01*
X1414187Y1785886D01*
X1414114Y1786122D01*
X1414035Y1786356D01*
X1413950Y1786588D01*
X1413859Y1786818D01*
X1413763Y1787045D01*
X1413662Y1787271D01*
X1413555Y1787493D01*
X1413443Y1787713D01*
X1413326Y1787931D01*
X1413203Y1788145D01*
X1413075Y1788357D01*
X1412942Y1788565D01*
X1412805Y1788770D01*
X1412662Y1788971D01*
X1412514Y1789169D01*
X1412362Y1789364D01*
X1412205Y1789555D01*
X1412043Y1789741D01*
X1411877Y1789924D01*
X1411707Y1790103D01*
X1411532Y1790278D01*
X1411353Y1790448D01*
X1411170Y1790614D01*
X1410984Y1790776D01*
X1410793Y1790933D01*
X1410598Y1791085D01*
X1410400Y1791233D01*
X1410199Y1791376D01*
X1409994Y1791513D01*
X1409786Y1791646D01*
X1409574Y1791774D01*
X1409360Y1791897D01*
X1409142Y1792014D01*
X1408922Y1792126D01*
X1408700Y1792233D01*
X1408474Y1792334D01*
X1408247Y1792430D01*
X1408017Y1792521D01*
X1407785Y1792606D01*
X1407551Y1792685D01*
X1407315Y1792758D01*
X1407077Y1792826D01*
X1406838Y1792888D01*
X1406598Y1792944D01*
X1406356Y1792995D01*
X1406113Y1793039D01*
X1405869Y1793078D01*
X1405624Y1793110D01*
X1405379Y1793137D01*
X1405132Y1793158D01*
X1404886Y1793173D01*
X1404639Y1793182D01*
X1404392Y1793185D01*
X1389059Y1793185D01*
X1389059Y1813630D01*
X1414614Y1813630D01*
X1017444Y1782000D02*
X1007222Y1782000D01*
X1006975Y1782003D01*
X1006728Y1782012D01*
X1006482Y1782027D01*
X1006235Y1782048D01*
X1005990Y1782075D01*
X1005745Y1782107D01*
X1005501Y1782146D01*
X1005258Y1782190D01*
X1005016Y1782241D01*
X1004776Y1782297D01*
X1004537Y1782359D01*
X1004299Y1782427D01*
X1004063Y1782500D01*
X1003829Y1782579D01*
X1003597Y1782664D01*
X1003367Y1782755D01*
X1003140Y1782851D01*
X1002914Y1782952D01*
X1002692Y1783059D01*
X1002472Y1783171D01*
X1002254Y1783288D01*
X1002040Y1783411D01*
X1001828Y1783539D01*
X1001620Y1783672D01*
X1001415Y1783809D01*
X1001214Y1783952D01*
X1001016Y1784100D01*
X1000821Y1784252D01*
X1000630Y1784409D01*
X1000444Y1784571D01*
X1000261Y1784737D01*
X1000082Y1784907D01*
X999907Y1785082D01*
X999737Y1785261D01*
X999571Y1785444D01*
X999409Y1785630D01*
X999252Y1785821D01*
X999100Y1786016D01*
X998952Y1786214D01*
X998809Y1786415D01*
X998672Y1786620D01*
X998539Y1786828D01*
X998411Y1787040D01*
X998288Y1787254D01*
X998171Y1787472D01*
X998059Y1787692D01*
X997952Y1787914D01*
X997851Y1788140D01*
X997755Y1788367D01*
X997664Y1788597D01*
X997579Y1788829D01*
X997500Y1789063D01*
X997427Y1789299D01*
X997359Y1789537D01*
X997297Y1789776D01*
X997241Y1790016D01*
X997190Y1790258D01*
X997146Y1790501D01*
X997107Y1790745D01*
X997075Y1790990D01*
X997048Y1791235D01*
X997027Y1791482D01*
X997012Y1791728D01*
X997003Y1791975D01*
X997000Y1792222D01*
X997000Y1817778D01*
X997003Y1818029D01*
X997012Y1818280D01*
X997028Y1818530D01*
X997049Y1818780D01*
X997077Y1819029D01*
X997111Y1819278D01*
X997150Y1819526D01*
X997196Y1819772D01*
X997248Y1820018D01*
X997306Y1820262D01*
X997370Y1820504D01*
X997440Y1820745D01*
X997516Y1820984D01*
X997598Y1821222D01*
X997685Y1821457D01*
X997778Y1821690D01*
X997877Y1821920D01*
X997981Y1822148D01*
X998091Y1822374D01*
X998207Y1822597D01*
X998328Y1822816D01*
X998454Y1823033D01*
X998586Y1823247D01*
X998723Y1823457D01*
X998865Y1823664D01*
X999012Y1823867D01*
X999163Y1824067D01*
X999320Y1824263D01*
X999482Y1824455D01*
X999648Y1824643D01*
X999819Y1824826D01*
X999994Y1825006D01*
X1000173Y1825181D01*
X1000357Y1825352D01*
X1000545Y1825518D01*
X1000737Y1825680D01*
X1000933Y1825836D01*
X1001133Y1825988D01*
X1001336Y1826135D01*
X1001543Y1826277D01*
X1001753Y1826414D01*
X1001967Y1826546D01*
X1002184Y1826672D01*
X1002403Y1826793D01*
X1002626Y1826908D01*
X1002851Y1827019D01*
X1003080Y1827123D01*
X1003310Y1827222D01*
X1003543Y1827315D01*
X1003778Y1827402D01*
X1004015Y1827484D01*
X1004255Y1827560D01*
X1004496Y1827630D01*
X1004738Y1827694D01*
X1004982Y1827752D01*
X1005228Y1827804D01*
X1005474Y1827849D01*
X1005722Y1827889D01*
X1005971Y1827923D01*
X1006220Y1827951D01*
X1006470Y1827972D01*
X1006720Y1827988D01*
X1006971Y1827997D01*
X1007222Y1828000D01*
X1017444Y1828000D01*
X1034631Y1807555D02*
X1049964Y1807555D01*
X1050211Y1807552D01*
X1050458Y1807543D01*
X1050704Y1807528D01*
X1050951Y1807507D01*
X1051196Y1807480D01*
X1051441Y1807448D01*
X1051685Y1807409D01*
X1051928Y1807365D01*
X1052170Y1807314D01*
X1052410Y1807258D01*
X1052649Y1807196D01*
X1052887Y1807128D01*
X1053123Y1807055D01*
X1053357Y1806976D01*
X1053589Y1806891D01*
X1053819Y1806800D01*
X1054046Y1806704D01*
X1054272Y1806603D01*
X1054494Y1806496D01*
X1054714Y1806384D01*
X1054932Y1806267D01*
X1055146Y1806144D01*
X1055358Y1806016D01*
X1055566Y1805883D01*
X1055771Y1805746D01*
X1055972Y1805603D01*
X1056170Y1805455D01*
X1056365Y1805303D01*
X1056556Y1805146D01*
X1056742Y1804984D01*
X1056925Y1804818D01*
X1057104Y1804648D01*
X1057279Y1804473D01*
X1057449Y1804294D01*
X1057615Y1804111D01*
X1057777Y1803925D01*
X1057934Y1803734D01*
X1058086Y1803539D01*
X1058234Y1803341D01*
X1058377Y1803140D01*
X1058514Y1802935D01*
X1058647Y1802727D01*
X1058775Y1802515D01*
X1058898Y1802301D01*
X1059015Y1802083D01*
X1059127Y1801863D01*
X1059234Y1801641D01*
X1059335Y1801415D01*
X1059431Y1801188D01*
X1059522Y1800958D01*
X1059607Y1800726D01*
X1059686Y1800492D01*
X1059759Y1800256D01*
X1059827Y1800018D01*
X1059889Y1799779D01*
X1059945Y1799539D01*
X1059996Y1799297D01*
X1060040Y1799054D01*
X1060079Y1798810D01*
X1060111Y1798565D01*
X1060138Y1798320D01*
X1060159Y1798073D01*
X1060174Y1797827D01*
X1060183Y1797580D01*
X1060186Y1797333D01*
X1060186Y1794778D01*
X1060182Y1794467D01*
X1060171Y1794156D01*
X1060152Y1793845D01*
X1060125Y1793535D01*
X1060091Y1793226D01*
X1060050Y1792918D01*
X1060001Y1792610D01*
X1059944Y1792304D01*
X1059880Y1792000D01*
X1059809Y1791697D01*
X1059730Y1791396D01*
X1059644Y1791097D01*
X1059551Y1790800D01*
X1059450Y1790505D01*
X1059343Y1790213D01*
X1059228Y1789924D01*
X1059106Y1789638D01*
X1058978Y1789354D01*
X1058842Y1789074D01*
X1058700Y1788797D01*
X1058551Y1788524D01*
X1058395Y1788255D01*
X1058233Y1787989D01*
X1058065Y1787728D01*
X1057890Y1787470D01*
X1057709Y1787217D01*
X1057522Y1786968D01*
X1057329Y1786724D01*
X1057130Y1786485D01*
X1056925Y1786251D01*
X1056714Y1786022D01*
X1056498Y1785798D01*
X1056277Y1785579D01*
X1056050Y1785366D01*
X1055818Y1785158D01*
X1055582Y1784956D01*
X1055340Y1784760D01*
X1055094Y1784570D01*
X1054843Y1784386D01*
X1054588Y1784208D01*
X1054328Y1784036D01*
X1054065Y1783871D01*
X1053797Y1783712D01*
X1053526Y1783560D01*
X1053251Y1783414D01*
X1052972Y1783275D01*
X1052690Y1783143D01*
X1052406Y1783018D01*
X1052118Y1782900D01*
X1051827Y1782788D01*
X1051534Y1782684D01*
X1051238Y1782588D01*
X1050940Y1782498D01*
X1050640Y1782415D01*
X1050338Y1782340D01*
X1050034Y1782273D01*
X1049729Y1782213D01*
X1049422Y1782160D01*
X1049114Y1782114D01*
X1048806Y1782077D01*
X1048496Y1782046D01*
X1048185Y1782024D01*
X1047875Y1782009D01*
X1047564Y1782001D01*
X1047252Y1782001D01*
X1046941Y1782009D01*
X1046631Y1782024D01*
X1046320Y1782046D01*
X1046010Y1782077D01*
X1045702Y1782114D01*
X1045394Y1782160D01*
X1045087Y1782213D01*
X1044782Y1782273D01*
X1044478Y1782340D01*
X1044176Y1782415D01*
X1043876Y1782498D01*
X1043578Y1782588D01*
X1043282Y1782684D01*
X1042989Y1782788D01*
X1042698Y1782900D01*
X1042410Y1783018D01*
X1042126Y1783143D01*
X1041844Y1783275D01*
X1041565Y1783414D01*
X1041290Y1783560D01*
X1041019Y1783712D01*
X1040751Y1783871D01*
X1040488Y1784036D01*
X1040228Y1784208D01*
X1039973Y1784386D01*
X1039722Y1784570D01*
X1039476Y1784760D01*
X1039234Y1784956D01*
X1038998Y1785158D01*
X1038766Y1785366D01*
X1038539Y1785579D01*
X1038318Y1785798D01*
X1038102Y1786022D01*
X1037891Y1786251D01*
X1037686Y1786485D01*
X1037487Y1786724D01*
X1037294Y1786968D01*
X1037107Y1787217D01*
X1036926Y1787470D01*
X1036751Y1787728D01*
X1036583Y1787989D01*
X1036421Y1788255D01*
X1036265Y1788524D01*
X1036116Y1788797D01*
X1035974Y1789074D01*
X1035838Y1789354D01*
X1035710Y1789638D01*
X1035588Y1789924D01*
X1035473Y1790213D01*
X1035366Y1790505D01*
X1035265Y1790800D01*
X1035172Y1791097D01*
X1035086Y1791396D01*
X1035007Y1791697D01*
X1034936Y1792000D01*
X1034872Y1792304D01*
X1034815Y1792610D01*
X1034766Y1792918D01*
X1034725Y1793226D01*
X1034691Y1793535D01*
X1034664Y1793845D01*
X1034645Y1794156D01*
X1034634Y1794467D01*
X1034630Y1794778D01*
X1034631Y1794778D02*
X1034631Y1807555D01*
X1034630Y1807555D02*
X1034636Y1808057D01*
X1034655Y1808558D01*
X1034685Y1809059D01*
X1034728Y1809559D01*
X1034784Y1810058D01*
X1034851Y1810555D01*
X1034931Y1811050D01*
X1035023Y1811544D01*
X1035127Y1812035D01*
X1035243Y1812523D01*
X1035371Y1813008D01*
X1035510Y1813490D01*
X1035662Y1813968D01*
X1035825Y1814443D01*
X1036000Y1814913D01*
X1036186Y1815379D01*
X1036384Y1815840D01*
X1036593Y1816296D01*
X1036813Y1816747D01*
X1037044Y1817193D01*
X1037286Y1817632D01*
X1037539Y1818066D01*
X1037802Y1818493D01*
X1038076Y1818914D01*
X1038359Y1819327D01*
X1038653Y1819734D01*
X1038957Y1820133D01*
X1039271Y1820525D01*
X1039594Y1820909D01*
X1039926Y1821285D01*
X1040268Y1821653D01*
X1040618Y1822012D01*
X1040977Y1822362D01*
X1041345Y1822704D01*
X1041721Y1823036D01*
X1042105Y1823359D01*
X1042497Y1823673D01*
X1042896Y1823977D01*
X1043303Y1824270D01*
X1043716Y1824554D01*
X1044137Y1824828D01*
X1044564Y1825091D01*
X1044998Y1825344D01*
X1045437Y1825586D01*
X1045883Y1825817D01*
X1046334Y1826037D01*
X1046790Y1826246D01*
X1047251Y1826444D01*
X1047717Y1826630D01*
X1048187Y1826805D01*
X1048662Y1826968D01*
X1049140Y1827120D01*
X1049622Y1827259D01*
X1050107Y1827387D01*
X1050595Y1827503D01*
X1051086Y1827607D01*
X1051580Y1827699D01*
X1052075Y1827779D01*
X1052572Y1827846D01*
X1053071Y1827902D01*
X1053571Y1827945D01*
X1054072Y1827975D01*
X1054573Y1827994D01*
X1055075Y1828000D01*
X687444Y1562000D02*
X677222Y1562000D01*
X676975Y1562003D01*
X676728Y1562012D01*
X676482Y1562027D01*
X676235Y1562048D01*
X675990Y1562075D01*
X675745Y1562107D01*
X675501Y1562146D01*
X675258Y1562190D01*
X675016Y1562241D01*
X674776Y1562297D01*
X674537Y1562359D01*
X674299Y1562427D01*
X674063Y1562500D01*
X673829Y1562579D01*
X673597Y1562664D01*
X673367Y1562755D01*
X673140Y1562851D01*
X672914Y1562952D01*
X672692Y1563059D01*
X672472Y1563171D01*
X672254Y1563288D01*
X672040Y1563411D01*
X671828Y1563539D01*
X671620Y1563672D01*
X671415Y1563809D01*
X671214Y1563952D01*
X671016Y1564100D01*
X670821Y1564252D01*
X670630Y1564409D01*
X670444Y1564571D01*
X670261Y1564737D01*
X670082Y1564907D01*
X669907Y1565082D01*
X669737Y1565261D01*
X669571Y1565444D01*
X669409Y1565630D01*
X669252Y1565821D01*
X669100Y1566016D01*
X668952Y1566214D01*
X668809Y1566415D01*
X668672Y1566620D01*
X668539Y1566828D01*
X668411Y1567040D01*
X668288Y1567254D01*
X668171Y1567472D01*
X668059Y1567692D01*
X667952Y1567914D01*
X667851Y1568140D01*
X667755Y1568367D01*
X667664Y1568597D01*
X667579Y1568829D01*
X667500Y1569063D01*
X667427Y1569299D01*
X667359Y1569537D01*
X667297Y1569776D01*
X667241Y1570016D01*
X667190Y1570258D01*
X667146Y1570501D01*
X667107Y1570745D01*
X667075Y1570990D01*
X667048Y1571235D01*
X667027Y1571482D01*
X667012Y1571728D01*
X667003Y1571975D01*
X667000Y1572222D01*
X667000Y1597778D01*
X667003Y1598029D01*
X667012Y1598280D01*
X667028Y1598530D01*
X667049Y1598780D01*
X667077Y1599029D01*
X667111Y1599278D01*
X667150Y1599526D01*
X667196Y1599772D01*
X667248Y1600018D01*
X667306Y1600262D01*
X667370Y1600504D01*
X667440Y1600745D01*
X667516Y1600984D01*
X667598Y1601222D01*
X667685Y1601457D01*
X667778Y1601690D01*
X667877Y1601920D01*
X667981Y1602148D01*
X668091Y1602374D01*
X668207Y1602597D01*
X668328Y1602816D01*
X668454Y1603033D01*
X668586Y1603247D01*
X668723Y1603457D01*
X668865Y1603664D01*
X669012Y1603867D01*
X669163Y1604067D01*
X669320Y1604263D01*
X669482Y1604455D01*
X669648Y1604643D01*
X669819Y1604826D01*
X669994Y1605006D01*
X670173Y1605181D01*
X670357Y1605352D01*
X670545Y1605518D01*
X670737Y1605680D01*
X670933Y1605836D01*
X671133Y1605988D01*
X671336Y1606135D01*
X671543Y1606277D01*
X671753Y1606414D01*
X671967Y1606546D01*
X672184Y1606672D01*
X672403Y1606793D01*
X672626Y1606908D01*
X672851Y1607019D01*
X673080Y1607123D01*
X673310Y1607222D01*
X673543Y1607315D01*
X673778Y1607402D01*
X674015Y1607484D01*
X674255Y1607560D01*
X674496Y1607630D01*
X674738Y1607694D01*
X674982Y1607752D01*
X675228Y1607804D01*
X675474Y1607849D01*
X675722Y1607889D01*
X675971Y1607923D01*
X676220Y1607951D01*
X676470Y1607972D01*
X676720Y1607988D01*
X676971Y1607997D01*
X677222Y1608000D01*
X687444Y1608000D01*
X704631Y1608000D02*
X704631Y1602889D01*
X704631Y1608000D02*
X730186Y1608000D01*
X717408Y1562000D01*
X1777222Y1032000D02*
X1787444Y1032000D01*
X1777222Y1032000D02*
X1776975Y1032003D01*
X1776728Y1032012D01*
X1776482Y1032027D01*
X1776235Y1032048D01*
X1775990Y1032075D01*
X1775745Y1032107D01*
X1775501Y1032146D01*
X1775258Y1032190D01*
X1775016Y1032241D01*
X1774776Y1032297D01*
X1774537Y1032359D01*
X1774299Y1032427D01*
X1774063Y1032500D01*
X1773829Y1032579D01*
X1773597Y1032664D01*
X1773367Y1032755D01*
X1773140Y1032851D01*
X1772914Y1032952D01*
X1772692Y1033059D01*
X1772472Y1033171D01*
X1772254Y1033288D01*
X1772040Y1033411D01*
X1771828Y1033539D01*
X1771620Y1033672D01*
X1771415Y1033809D01*
X1771214Y1033952D01*
X1771016Y1034100D01*
X1770821Y1034252D01*
X1770630Y1034409D01*
X1770444Y1034571D01*
X1770261Y1034737D01*
X1770082Y1034907D01*
X1769907Y1035082D01*
X1769737Y1035261D01*
X1769571Y1035444D01*
X1769409Y1035630D01*
X1769252Y1035821D01*
X1769100Y1036016D01*
X1768952Y1036214D01*
X1768809Y1036415D01*
X1768672Y1036620D01*
X1768539Y1036828D01*
X1768411Y1037040D01*
X1768288Y1037254D01*
X1768171Y1037472D01*
X1768059Y1037692D01*
X1767952Y1037914D01*
X1767851Y1038140D01*
X1767755Y1038367D01*
X1767664Y1038597D01*
X1767579Y1038829D01*
X1767500Y1039063D01*
X1767427Y1039299D01*
X1767359Y1039537D01*
X1767297Y1039776D01*
X1767241Y1040016D01*
X1767190Y1040258D01*
X1767146Y1040501D01*
X1767107Y1040745D01*
X1767075Y1040990D01*
X1767048Y1041235D01*
X1767027Y1041482D01*
X1767012Y1041728D01*
X1767003Y1041975D01*
X1767000Y1042222D01*
X1767000Y1067778D01*
X1767003Y1068029D01*
X1767012Y1068280D01*
X1767028Y1068530D01*
X1767049Y1068780D01*
X1767077Y1069029D01*
X1767111Y1069278D01*
X1767150Y1069526D01*
X1767196Y1069772D01*
X1767248Y1070018D01*
X1767306Y1070262D01*
X1767370Y1070504D01*
X1767440Y1070745D01*
X1767516Y1070984D01*
X1767598Y1071222D01*
X1767685Y1071457D01*
X1767778Y1071690D01*
X1767877Y1071920D01*
X1767981Y1072148D01*
X1768091Y1072374D01*
X1768207Y1072597D01*
X1768328Y1072816D01*
X1768454Y1073033D01*
X1768586Y1073247D01*
X1768723Y1073457D01*
X1768865Y1073664D01*
X1769012Y1073867D01*
X1769163Y1074067D01*
X1769320Y1074263D01*
X1769482Y1074455D01*
X1769648Y1074643D01*
X1769819Y1074826D01*
X1769994Y1075006D01*
X1770173Y1075181D01*
X1770357Y1075352D01*
X1770545Y1075518D01*
X1770737Y1075680D01*
X1770933Y1075836D01*
X1771133Y1075988D01*
X1771336Y1076135D01*
X1771543Y1076277D01*
X1771753Y1076414D01*
X1771967Y1076546D01*
X1772184Y1076672D01*
X1772403Y1076793D01*
X1772626Y1076908D01*
X1772851Y1077019D01*
X1773080Y1077123D01*
X1773310Y1077222D01*
X1773543Y1077315D01*
X1773778Y1077402D01*
X1774015Y1077484D01*
X1774255Y1077560D01*
X1774496Y1077630D01*
X1774738Y1077694D01*
X1774982Y1077752D01*
X1775228Y1077804D01*
X1775474Y1077849D01*
X1775722Y1077889D01*
X1775971Y1077923D01*
X1776220Y1077951D01*
X1776470Y1077972D01*
X1776720Y1077988D01*
X1776971Y1077997D01*
X1777222Y1078000D01*
X1787444Y1078000D01*
X1804630Y1044778D02*
X1804634Y1045089D01*
X1804645Y1045400D01*
X1804664Y1045711D01*
X1804691Y1046021D01*
X1804725Y1046330D01*
X1804766Y1046638D01*
X1804815Y1046946D01*
X1804872Y1047252D01*
X1804936Y1047556D01*
X1805007Y1047859D01*
X1805086Y1048160D01*
X1805172Y1048459D01*
X1805265Y1048756D01*
X1805366Y1049051D01*
X1805473Y1049343D01*
X1805588Y1049632D01*
X1805710Y1049918D01*
X1805838Y1050202D01*
X1805974Y1050482D01*
X1806116Y1050759D01*
X1806265Y1051032D01*
X1806421Y1051301D01*
X1806583Y1051567D01*
X1806751Y1051828D01*
X1806926Y1052086D01*
X1807107Y1052339D01*
X1807294Y1052588D01*
X1807487Y1052832D01*
X1807686Y1053071D01*
X1807891Y1053305D01*
X1808102Y1053534D01*
X1808318Y1053758D01*
X1808539Y1053977D01*
X1808766Y1054190D01*
X1808998Y1054398D01*
X1809234Y1054600D01*
X1809476Y1054796D01*
X1809722Y1054986D01*
X1809973Y1055170D01*
X1810228Y1055348D01*
X1810488Y1055520D01*
X1810751Y1055685D01*
X1811019Y1055844D01*
X1811290Y1055996D01*
X1811565Y1056142D01*
X1811844Y1056281D01*
X1812126Y1056413D01*
X1812410Y1056538D01*
X1812698Y1056656D01*
X1812989Y1056768D01*
X1813282Y1056872D01*
X1813578Y1056968D01*
X1813876Y1057058D01*
X1814176Y1057141D01*
X1814478Y1057216D01*
X1814782Y1057283D01*
X1815087Y1057343D01*
X1815394Y1057396D01*
X1815702Y1057442D01*
X1816010Y1057479D01*
X1816320Y1057510D01*
X1816631Y1057532D01*
X1816941Y1057547D01*
X1817252Y1057555D01*
X1817564Y1057555D01*
X1817875Y1057547D01*
X1818185Y1057532D01*
X1818496Y1057510D01*
X1818806Y1057479D01*
X1819114Y1057442D01*
X1819422Y1057396D01*
X1819729Y1057343D01*
X1820034Y1057283D01*
X1820338Y1057216D01*
X1820640Y1057141D01*
X1820940Y1057058D01*
X1821238Y1056968D01*
X1821534Y1056872D01*
X1821827Y1056768D01*
X1822118Y1056656D01*
X1822406Y1056538D01*
X1822690Y1056413D01*
X1822972Y1056281D01*
X1823251Y1056142D01*
X1823526Y1055996D01*
X1823797Y1055844D01*
X1824065Y1055685D01*
X1824328Y1055520D01*
X1824588Y1055348D01*
X1824843Y1055170D01*
X1825094Y1054986D01*
X1825340Y1054796D01*
X1825582Y1054600D01*
X1825818Y1054398D01*
X1826050Y1054190D01*
X1826277Y1053977D01*
X1826498Y1053758D01*
X1826714Y1053534D01*
X1826925Y1053305D01*
X1827130Y1053071D01*
X1827329Y1052832D01*
X1827522Y1052588D01*
X1827709Y1052339D01*
X1827890Y1052086D01*
X1828065Y1051828D01*
X1828233Y1051567D01*
X1828395Y1051301D01*
X1828551Y1051032D01*
X1828700Y1050759D01*
X1828842Y1050482D01*
X1828978Y1050202D01*
X1829106Y1049918D01*
X1829228Y1049632D01*
X1829343Y1049343D01*
X1829450Y1049051D01*
X1829551Y1048756D01*
X1829644Y1048459D01*
X1829730Y1048160D01*
X1829809Y1047859D01*
X1829880Y1047556D01*
X1829944Y1047252D01*
X1830001Y1046946D01*
X1830050Y1046638D01*
X1830091Y1046330D01*
X1830125Y1046021D01*
X1830152Y1045711D01*
X1830171Y1045400D01*
X1830182Y1045089D01*
X1830186Y1044778D01*
X1830182Y1044467D01*
X1830171Y1044156D01*
X1830152Y1043845D01*
X1830125Y1043535D01*
X1830091Y1043226D01*
X1830050Y1042918D01*
X1830001Y1042610D01*
X1829944Y1042304D01*
X1829880Y1042000D01*
X1829809Y1041697D01*
X1829730Y1041396D01*
X1829644Y1041097D01*
X1829551Y1040800D01*
X1829450Y1040505D01*
X1829343Y1040213D01*
X1829228Y1039924D01*
X1829106Y1039638D01*
X1828978Y1039354D01*
X1828842Y1039074D01*
X1828700Y1038797D01*
X1828551Y1038524D01*
X1828395Y1038255D01*
X1828233Y1037989D01*
X1828065Y1037728D01*
X1827890Y1037470D01*
X1827709Y1037217D01*
X1827522Y1036968D01*
X1827329Y1036724D01*
X1827130Y1036485D01*
X1826925Y1036251D01*
X1826714Y1036022D01*
X1826498Y1035798D01*
X1826277Y1035579D01*
X1826050Y1035366D01*
X1825818Y1035158D01*
X1825582Y1034956D01*
X1825340Y1034760D01*
X1825094Y1034570D01*
X1824843Y1034386D01*
X1824588Y1034208D01*
X1824328Y1034036D01*
X1824065Y1033871D01*
X1823797Y1033712D01*
X1823526Y1033560D01*
X1823251Y1033414D01*
X1822972Y1033275D01*
X1822690Y1033143D01*
X1822406Y1033018D01*
X1822118Y1032900D01*
X1821827Y1032788D01*
X1821534Y1032684D01*
X1821238Y1032588D01*
X1820940Y1032498D01*
X1820640Y1032415D01*
X1820338Y1032340D01*
X1820034Y1032273D01*
X1819729Y1032213D01*
X1819422Y1032160D01*
X1819114Y1032114D01*
X1818806Y1032077D01*
X1818496Y1032046D01*
X1818185Y1032024D01*
X1817875Y1032009D01*
X1817564Y1032001D01*
X1817252Y1032001D01*
X1816941Y1032009D01*
X1816631Y1032024D01*
X1816320Y1032046D01*
X1816010Y1032077D01*
X1815702Y1032114D01*
X1815394Y1032160D01*
X1815087Y1032213D01*
X1814782Y1032273D01*
X1814478Y1032340D01*
X1814176Y1032415D01*
X1813876Y1032498D01*
X1813578Y1032588D01*
X1813282Y1032684D01*
X1812989Y1032788D01*
X1812698Y1032900D01*
X1812410Y1033018D01*
X1812126Y1033143D01*
X1811844Y1033275D01*
X1811565Y1033414D01*
X1811290Y1033560D01*
X1811019Y1033712D01*
X1810751Y1033871D01*
X1810488Y1034036D01*
X1810228Y1034208D01*
X1809973Y1034386D01*
X1809722Y1034570D01*
X1809476Y1034760D01*
X1809234Y1034956D01*
X1808998Y1035158D01*
X1808766Y1035366D01*
X1808539Y1035579D01*
X1808318Y1035798D01*
X1808102Y1036022D01*
X1807891Y1036251D01*
X1807686Y1036485D01*
X1807487Y1036724D01*
X1807294Y1036968D01*
X1807107Y1037217D01*
X1806926Y1037470D01*
X1806751Y1037728D01*
X1806583Y1037989D01*
X1806421Y1038255D01*
X1806265Y1038524D01*
X1806116Y1038797D01*
X1805974Y1039074D01*
X1805838Y1039354D01*
X1805710Y1039638D01*
X1805588Y1039924D01*
X1805473Y1040213D01*
X1805366Y1040505D01*
X1805265Y1040800D01*
X1805172Y1041097D01*
X1805086Y1041396D01*
X1805007Y1041697D01*
X1804936Y1042000D01*
X1804872Y1042304D01*
X1804815Y1042610D01*
X1804766Y1042918D01*
X1804725Y1043226D01*
X1804691Y1043535D01*
X1804664Y1043845D01*
X1804645Y1044156D01*
X1804634Y1044467D01*
X1804630Y1044778D01*
X1807186Y1067778D02*
X1807189Y1068027D01*
X1807198Y1068276D01*
X1807213Y1068524D01*
X1807234Y1068772D01*
X1807262Y1069020D01*
X1807295Y1069266D01*
X1807334Y1069512D01*
X1807379Y1069757D01*
X1807431Y1070001D01*
X1807488Y1070243D01*
X1807551Y1070484D01*
X1807619Y1070723D01*
X1807694Y1070960D01*
X1807774Y1071196D01*
X1807860Y1071430D01*
X1807952Y1071661D01*
X1808050Y1071890D01*
X1808153Y1072117D01*
X1808261Y1072341D01*
X1808375Y1072562D01*
X1808494Y1072781D01*
X1808618Y1072996D01*
X1808748Y1073209D01*
X1808883Y1073418D01*
X1809023Y1073624D01*
X1809168Y1073827D01*
X1809317Y1074025D01*
X1809472Y1074221D01*
X1809631Y1074412D01*
X1809795Y1074599D01*
X1809963Y1074783D01*
X1810136Y1074962D01*
X1810313Y1075137D01*
X1810494Y1075307D01*
X1810680Y1075474D01*
X1810869Y1075635D01*
X1811063Y1075792D01*
X1811260Y1075944D01*
X1811460Y1076091D01*
X1811664Y1076234D01*
X1811872Y1076371D01*
X1812083Y1076503D01*
X1812297Y1076631D01*
X1812514Y1076752D01*
X1812734Y1076869D01*
X1812957Y1076980D01*
X1813182Y1077086D01*
X1813410Y1077186D01*
X1813640Y1077280D01*
X1813873Y1077369D01*
X1814108Y1077453D01*
X1814344Y1077530D01*
X1814582Y1077602D01*
X1814823Y1077668D01*
X1815064Y1077728D01*
X1815307Y1077782D01*
X1815551Y1077830D01*
X1815797Y1077872D01*
X1816043Y1077908D01*
X1816290Y1077939D01*
X1816538Y1077963D01*
X1816786Y1077981D01*
X1817035Y1077993D01*
X1817284Y1077999D01*
X1817532Y1077999D01*
X1817781Y1077993D01*
X1818030Y1077981D01*
X1818278Y1077963D01*
X1818526Y1077939D01*
X1818773Y1077908D01*
X1819019Y1077872D01*
X1819265Y1077830D01*
X1819509Y1077782D01*
X1819752Y1077728D01*
X1819993Y1077668D01*
X1820234Y1077602D01*
X1820472Y1077530D01*
X1820708Y1077453D01*
X1820943Y1077369D01*
X1821176Y1077280D01*
X1821406Y1077186D01*
X1821634Y1077086D01*
X1821859Y1076980D01*
X1822082Y1076869D01*
X1822302Y1076752D01*
X1822519Y1076631D01*
X1822733Y1076503D01*
X1822944Y1076371D01*
X1823152Y1076234D01*
X1823356Y1076091D01*
X1823556Y1075944D01*
X1823753Y1075792D01*
X1823947Y1075635D01*
X1824136Y1075474D01*
X1824322Y1075307D01*
X1824503Y1075137D01*
X1824680Y1074962D01*
X1824853Y1074783D01*
X1825021Y1074599D01*
X1825185Y1074412D01*
X1825344Y1074221D01*
X1825499Y1074025D01*
X1825648Y1073827D01*
X1825793Y1073624D01*
X1825933Y1073418D01*
X1826068Y1073209D01*
X1826198Y1072996D01*
X1826322Y1072781D01*
X1826441Y1072562D01*
X1826555Y1072341D01*
X1826663Y1072117D01*
X1826766Y1071890D01*
X1826864Y1071661D01*
X1826956Y1071430D01*
X1827042Y1071196D01*
X1827122Y1070960D01*
X1827197Y1070723D01*
X1827265Y1070484D01*
X1827328Y1070243D01*
X1827385Y1070001D01*
X1827437Y1069757D01*
X1827482Y1069512D01*
X1827521Y1069266D01*
X1827554Y1069020D01*
X1827582Y1068772D01*
X1827603Y1068524D01*
X1827618Y1068276D01*
X1827627Y1068027D01*
X1827630Y1067778D01*
X1827627Y1067529D01*
X1827618Y1067280D01*
X1827603Y1067032D01*
X1827582Y1066784D01*
X1827554Y1066536D01*
X1827521Y1066290D01*
X1827482Y1066044D01*
X1827437Y1065799D01*
X1827385Y1065555D01*
X1827328Y1065313D01*
X1827265Y1065072D01*
X1827197Y1064833D01*
X1827122Y1064596D01*
X1827042Y1064360D01*
X1826956Y1064126D01*
X1826864Y1063895D01*
X1826766Y1063666D01*
X1826663Y1063439D01*
X1826555Y1063215D01*
X1826441Y1062994D01*
X1826322Y1062775D01*
X1826198Y1062560D01*
X1826068Y1062347D01*
X1825933Y1062138D01*
X1825793Y1061932D01*
X1825648Y1061729D01*
X1825499Y1061531D01*
X1825344Y1061335D01*
X1825185Y1061144D01*
X1825021Y1060957D01*
X1824853Y1060773D01*
X1824680Y1060594D01*
X1824503Y1060419D01*
X1824322Y1060249D01*
X1824136Y1060082D01*
X1823947Y1059921D01*
X1823753Y1059764D01*
X1823556Y1059612D01*
X1823356Y1059465D01*
X1823152Y1059322D01*
X1822944Y1059185D01*
X1822733Y1059053D01*
X1822519Y1058925D01*
X1822302Y1058804D01*
X1822082Y1058687D01*
X1821859Y1058576D01*
X1821634Y1058470D01*
X1821406Y1058370D01*
X1821176Y1058276D01*
X1820943Y1058187D01*
X1820708Y1058103D01*
X1820472Y1058026D01*
X1820234Y1057954D01*
X1819993Y1057888D01*
X1819752Y1057828D01*
X1819509Y1057774D01*
X1819265Y1057726D01*
X1819019Y1057684D01*
X1818773Y1057648D01*
X1818526Y1057617D01*
X1818278Y1057593D01*
X1818030Y1057575D01*
X1817781Y1057563D01*
X1817532Y1057557D01*
X1817284Y1057557D01*
X1817035Y1057563D01*
X1816786Y1057575D01*
X1816538Y1057593D01*
X1816290Y1057617D01*
X1816043Y1057648D01*
X1815797Y1057684D01*
X1815551Y1057726D01*
X1815307Y1057774D01*
X1815064Y1057828D01*
X1814823Y1057888D01*
X1814582Y1057954D01*
X1814344Y1058026D01*
X1814108Y1058103D01*
X1813873Y1058187D01*
X1813640Y1058276D01*
X1813410Y1058370D01*
X1813182Y1058470D01*
X1812957Y1058576D01*
X1812734Y1058687D01*
X1812514Y1058804D01*
X1812297Y1058925D01*
X1812083Y1059053D01*
X1811872Y1059185D01*
X1811664Y1059322D01*
X1811460Y1059465D01*
X1811260Y1059612D01*
X1811063Y1059764D01*
X1810869Y1059921D01*
X1810680Y1060082D01*
X1810494Y1060249D01*
X1810313Y1060419D01*
X1810136Y1060594D01*
X1809963Y1060773D01*
X1809795Y1060957D01*
X1809631Y1061144D01*
X1809472Y1061335D01*
X1809317Y1061531D01*
X1809168Y1061729D01*
X1809023Y1061932D01*
X1808883Y1062138D01*
X1808748Y1062347D01*
X1808618Y1062560D01*
X1808494Y1062775D01*
X1808375Y1062994D01*
X1808261Y1063215D01*
X1808153Y1063439D01*
X1808050Y1063666D01*
X1807952Y1063895D01*
X1807860Y1064126D01*
X1807774Y1064360D01*
X1807694Y1064596D01*
X1807619Y1064833D01*
X1807551Y1065072D01*
X1807488Y1065313D01*
X1807431Y1065555D01*
X1807379Y1065799D01*
X1807334Y1066044D01*
X1807295Y1066290D01*
X1807262Y1066536D01*
X1807234Y1066784D01*
X1807213Y1067032D01*
X1807198Y1067280D01*
X1807189Y1067529D01*
X1807186Y1067778D01*
X1788704Y449874D02*
X1778482Y449874D01*
X1778235Y449877D01*
X1777988Y449886D01*
X1777742Y449901D01*
X1777495Y449922D01*
X1777250Y449949D01*
X1777005Y449981D01*
X1776761Y450020D01*
X1776518Y450064D01*
X1776276Y450115D01*
X1776036Y450171D01*
X1775797Y450233D01*
X1775559Y450301D01*
X1775323Y450374D01*
X1775089Y450453D01*
X1774857Y450538D01*
X1774627Y450629D01*
X1774400Y450725D01*
X1774174Y450826D01*
X1773952Y450933D01*
X1773732Y451045D01*
X1773514Y451162D01*
X1773300Y451285D01*
X1773088Y451413D01*
X1772880Y451546D01*
X1772675Y451683D01*
X1772474Y451826D01*
X1772276Y451974D01*
X1772081Y452126D01*
X1771890Y452283D01*
X1771704Y452445D01*
X1771521Y452611D01*
X1771342Y452781D01*
X1771167Y452956D01*
X1770997Y453135D01*
X1770831Y453318D01*
X1770669Y453504D01*
X1770512Y453695D01*
X1770360Y453890D01*
X1770212Y454088D01*
X1770069Y454289D01*
X1769932Y454494D01*
X1769799Y454702D01*
X1769671Y454914D01*
X1769548Y455128D01*
X1769431Y455346D01*
X1769319Y455566D01*
X1769212Y455788D01*
X1769111Y456014D01*
X1769015Y456241D01*
X1768924Y456471D01*
X1768839Y456703D01*
X1768760Y456937D01*
X1768687Y457173D01*
X1768619Y457411D01*
X1768557Y457650D01*
X1768501Y457890D01*
X1768450Y458132D01*
X1768406Y458375D01*
X1768367Y458619D01*
X1768335Y458864D01*
X1768308Y459109D01*
X1768287Y459356D01*
X1768272Y459602D01*
X1768263Y459849D01*
X1768260Y460096D01*
X1768260Y485652D01*
X1768263Y485903D01*
X1768272Y486154D01*
X1768288Y486404D01*
X1768309Y486654D01*
X1768337Y486903D01*
X1768371Y487152D01*
X1768410Y487400D01*
X1768456Y487646D01*
X1768508Y487892D01*
X1768566Y488136D01*
X1768630Y488378D01*
X1768700Y488619D01*
X1768776Y488858D01*
X1768858Y489096D01*
X1768945Y489331D01*
X1769038Y489564D01*
X1769137Y489794D01*
X1769241Y490022D01*
X1769351Y490248D01*
X1769467Y490471D01*
X1769588Y490690D01*
X1769714Y490907D01*
X1769846Y491121D01*
X1769983Y491331D01*
X1770125Y491538D01*
X1770272Y491741D01*
X1770423Y491941D01*
X1770580Y492137D01*
X1770742Y492329D01*
X1770908Y492517D01*
X1771079Y492700D01*
X1771254Y492880D01*
X1771433Y493055D01*
X1771617Y493226D01*
X1771805Y493392D01*
X1771997Y493554D01*
X1772193Y493710D01*
X1772393Y493862D01*
X1772596Y494009D01*
X1772803Y494151D01*
X1773013Y494288D01*
X1773227Y494420D01*
X1773444Y494546D01*
X1773663Y494667D01*
X1773886Y494782D01*
X1774111Y494893D01*
X1774340Y494997D01*
X1774570Y495096D01*
X1774803Y495189D01*
X1775038Y495276D01*
X1775275Y495358D01*
X1775515Y495434D01*
X1775756Y495504D01*
X1775998Y495568D01*
X1776242Y495626D01*
X1776488Y495678D01*
X1776734Y495723D01*
X1776982Y495763D01*
X1777231Y495797D01*
X1777480Y495825D01*
X1777730Y495846D01*
X1777980Y495862D01*
X1778231Y495871D01*
X1778482Y495874D01*
X1788704Y495874D01*
X1816113Y470318D02*
X1831446Y470318D01*
X1816113Y470319D02*
X1815866Y470322D01*
X1815619Y470331D01*
X1815373Y470346D01*
X1815126Y470367D01*
X1814881Y470394D01*
X1814636Y470426D01*
X1814392Y470465D01*
X1814149Y470509D01*
X1813907Y470560D01*
X1813667Y470616D01*
X1813428Y470678D01*
X1813190Y470746D01*
X1812954Y470819D01*
X1812720Y470898D01*
X1812488Y470983D01*
X1812258Y471074D01*
X1812031Y471170D01*
X1811805Y471271D01*
X1811583Y471378D01*
X1811363Y471490D01*
X1811145Y471607D01*
X1810931Y471730D01*
X1810719Y471858D01*
X1810511Y471991D01*
X1810306Y472128D01*
X1810105Y472271D01*
X1809907Y472419D01*
X1809712Y472571D01*
X1809521Y472728D01*
X1809335Y472890D01*
X1809152Y473056D01*
X1808973Y473226D01*
X1808798Y473401D01*
X1808628Y473580D01*
X1808462Y473763D01*
X1808300Y473949D01*
X1808143Y474140D01*
X1807991Y474335D01*
X1807843Y474533D01*
X1807700Y474734D01*
X1807563Y474939D01*
X1807430Y475147D01*
X1807302Y475359D01*
X1807179Y475573D01*
X1807062Y475791D01*
X1806950Y476011D01*
X1806843Y476233D01*
X1806742Y476459D01*
X1806646Y476686D01*
X1806555Y476916D01*
X1806470Y477148D01*
X1806391Y477382D01*
X1806318Y477618D01*
X1806250Y477856D01*
X1806188Y478095D01*
X1806132Y478335D01*
X1806081Y478577D01*
X1806037Y478820D01*
X1805998Y479064D01*
X1805966Y479309D01*
X1805939Y479554D01*
X1805918Y479801D01*
X1805903Y480047D01*
X1805894Y480294D01*
X1805891Y480541D01*
X1805891Y483096D01*
X1805890Y483096D02*
X1805894Y483407D01*
X1805905Y483718D01*
X1805924Y484029D01*
X1805951Y484339D01*
X1805985Y484648D01*
X1806026Y484956D01*
X1806075Y485264D01*
X1806132Y485570D01*
X1806196Y485874D01*
X1806267Y486177D01*
X1806346Y486478D01*
X1806432Y486777D01*
X1806525Y487074D01*
X1806626Y487369D01*
X1806733Y487661D01*
X1806848Y487950D01*
X1806970Y488236D01*
X1807098Y488520D01*
X1807234Y488800D01*
X1807376Y489077D01*
X1807525Y489350D01*
X1807681Y489619D01*
X1807843Y489885D01*
X1808011Y490146D01*
X1808186Y490404D01*
X1808367Y490657D01*
X1808554Y490906D01*
X1808747Y491150D01*
X1808946Y491389D01*
X1809151Y491623D01*
X1809362Y491852D01*
X1809578Y492076D01*
X1809799Y492295D01*
X1810026Y492508D01*
X1810258Y492716D01*
X1810494Y492918D01*
X1810736Y493114D01*
X1810982Y493304D01*
X1811233Y493488D01*
X1811488Y493666D01*
X1811748Y493838D01*
X1812011Y494003D01*
X1812279Y494162D01*
X1812550Y494314D01*
X1812825Y494460D01*
X1813104Y494599D01*
X1813386Y494731D01*
X1813670Y494856D01*
X1813958Y494974D01*
X1814249Y495086D01*
X1814542Y495190D01*
X1814838Y495286D01*
X1815136Y495376D01*
X1815436Y495459D01*
X1815738Y495534D01*
X1816042Y495601D01*
X1816347Y495661D01*
X1816654Y495714D01*
X1816962Y495760D01*
X1817270Y495797D01*
X1817580Y495828D01*
X1817891Y495850D01*
X1818201Y495865D01*
X1818512Y495873D01*
X1818824Y495873D01*
X1819135Y495865D01*
X1819445Y495850D01*
X1819756Y495828D01*
X1820066Y495797D01*
X1820374Y495760D01*
X1820682Y495714D01*
X1820989Y495661D01*
X1821294Y495601D01*
X1821598Y495534D01*
X1821900Y495459D01*
X1822200Y495376D01*
X1822498Y495286D01*
X1822794Y495190D01*
X1823087Y495086D01*
X1823378Y494974D01*
X1823666Y494856D01*
X1823950Y494731D01*
X1824232Y494599D01*
X1824511Y494460D01*
X1824786Y494314D01*
X1825057Y494162D01*
X1825325Y494003D01*
X1825588Y493838D01*
X1825848Y493666D01*
X1826103Y493488D01*
X1826354Y493304D01*
X1826600Y493114D01*
X1826842Y492918D01*
X1827078Y492716D01*
X1827310Y492508D01*
X1827537Y492295D01*
X1827758Y492076D01*
X1827974Y491852D01*
X1828185Y491623D01*
X1828390Y491389D01*
X1828589Y491150D01*
X1828782Y490906D01*
X1828969Y490657D01*
X1829150Y490404D01*
X1829325Y490146D01*
X1829493Y489885D01*
X1829655Y489619D01*
X1829811Y489350D01*
X1829960Y489077D01*
X1830102Y488800D01*
X1830238Y488520D01*
X1830366Y488236D01*
X1830488Y487950D01*
X1830603Y487661D01*
X1830710Y487369D01*
X1830811Y487074D01*
X1830904Y486777D01*
X1830990Y486478D01*
X1831069Y486177D01*
X1831140Y485874D01*
X1831204Y485570D01*
X1831261Y485264D01*
X1831310Y484956D01*
X1831351Y484648D01*
X1831385Y484339D01*
X1831412Y484029D01*
X1831431Y483718D01*
X1831442Y483407D01*
X1831446Y483096D01*
X1831446Y470318D01*
X1831440Y469824D01*
X1831422Y469330D01*
X1831392Y468837D01*
X1831351Y468345D01*
X1831297Y467854D01*
X1831231Y467364D01*
X1831154Y466876D01*
X1831065Y466390D01*
X1830964Y465907D01*
X1830852Y465425D01*
X1830728Y464947D01*
X1830592Y464472D01*
X1830445Y464000D01*
X1830287Y463532D01*
X1830117Y463068D01*
X1829937Y462609D01*
X1829745Y462153D01*
X1829542Y461703D01*
X1829329Y461257D01*
X1829104Y460817D01*
X1828869Y460383D01*
X1828624Y459954D01*
X1828369Y459531D01*
X1828103Y459114D01*
X1827827Y458704D01*
X1827542Y458301D01*
X1827246Y457905D01*
X1826942Y457516D01*
X1826628Y457135D01*
X1826305Y456761D01*
X1825973Y456395D01*
X1825632Y456038D01*
X1825282Y455688D01*
X1824925Y455347D01*
X1824559Y455015D01*
X1824185Y454692D01*
X1823804Y454378D01*
X1823415Y454074D01*
X1823019Y453778D01*
X1822616Y453493D01*
X1822206Y453217D01*
X1821789Y452951D01*
X1821366Y452696D01*
X1820937Y452451D01*
X1820503Y452216D01*
X1820063Y451991D01*
X1819617Y451778D01*
X1819167Y451575D01*
X1818711Y451383D01*
X1818252Y451203D01*
X1817788Y451033D01*
X1817320Y450875D01*
X1816848Y450728D01*
X1816373Y450592D01*
X1815895Y450468D01*
X1815413Y450356D01*
X1814930Y450255D01*
X1814444Y450166D01*
X1813956Y450089D01*
X1813466Y450023D01*
X1812975Y449969D01*
X1812483Y449928D01*
X1811990Y449898D01*
X1811496Y449880D01*
X1811002Y449874D01*
X900200Y488142D02*
X889978Y488142D01*
X889731Y488145D01*
X889484Y488154D01*
X889238Y488169D01*
X888991Y488190D01*
X888746Y488217D01*
X888501Y488249D01*
X888257Y488288D01*
X888014Y488332D01*
X887772Y488383D01*
X887532Y488439D01*
X887293Y488501D01*
X887055Y488569D01*
X886819Y488642D01*
X886585Y488721D01*
X886353Y488806D01*
X886123Y488897D01*
X885896Y488993D01*
X885670Y489094D01*
X885448Y489201D01*
X885228Y489313D01*
X885010Y489430D01*
X884796Y489553D01*
X884584Y489681D01*
X884376Y489814D01*
X884171Y489951D01*
X883970Y490094D01*
X883772Y490242D01*
X883577Y490394D01*
X883386Y490551D01*
X883200Y490713D01*
X883017Y490879D01*
X882838Y491049D01*
X882663Y491224D01*
X882493Y491403D01*
X882327Y491586D01*
X882165Y491772D01*
X882008Y491963D01*
X881856Y492158D01*
X881708Y492356D01*
X881565Y492557D01*
X881428Y492762D01*
X881295Y492970D01*
X881167Y493182D01*
X881044Y493396D01*
X880927Y493614D01*
X880815Y493834D01*
X880708Y494056D01*
X880607Y494282D01*
X880511Y494509D01*
X880420Y494739D01*
X880335Y494971D01*
X880256Y495205D01*
X880183Y495441D01*
X880115Y495679D01*
X880053Y495918D01*
X879997Y496158D01*
X879946Y496400D01*
X879902Y496643D01*
X879863Y496887D01*
X879831Y497132D01*
X879804Y497377D01*
X879783Y497624D01*
X879768Y497870D01*
X879759Y498117D01*
X879756Y498364D01*
X879756Y523919D01*
X879759Y524170D01*
X879768Y524421D01*
X879784Y524671D01*
X879805Y524921D01*
X879833Y525170D01*
X879867Y525419D01*
X879906Y525667D01*
X879952Y525913D01*
X880004Y526159D01*
X880062Y526403D01*
X880126Y526645D01*
X880196Y526886D01*
X880272Y527125D01*
X880354Y527363D01*
X880441Y527598D01*
X880534Y527831D01*
X880633Y528061D01*
X880737Y528289D01*
X880847Y528515D01*
X880963Y528738D01*
X881084Y528957D01*
X881210Y529174D01*
X881342Y529388D01*
X881479Y529598D01*
X881621Y529805D01*
X881768Y530008D01*
X881919Y530208D01*
X882076Y530404D01*
X882238Y530596D01*
X882404Y530784D01*
X882575Y530967D01*
X882750Y531147D01*
X882929Y531322D01*
X883113Y531493D01*
X883301Y531659D01*
X883493Y531821D01*
X883689Y531977D01*
X883889Y532129D01*
X884092Y532276D01*
X884299Y532418D01*
X884509Y532555D01*
X884723Y532687D01*
X884940Y532813D01*
X885159Y532934D01*
X885382Y533049D01*
X885607Y533160D01*
X885836Y533264D01*
X886066Y533363D01*
X886299Y533456D01*
X886534Y533543D01*
X886771Y533625D01*
X887011Y533701D01*
X887252Y533771D01*
X887494Y533835D01*
X887738Y533893D01*
X887984Y533945D01*
X888230Y533990D01*
X888478Y534030D01*
X888727Y534064D01*
X888976Y534092D01*
X889226Y534113D01*
X889476Y534129D01*
X889727Y534138D01*
X889978Y534141D01*
X889978Y534142D02*
X900200Y534142D01*
X917387Y523919D02*
X930164Y534142D01*
X930164Y488142D01*
X917387Y488142D02*
X942942Y488142D01*
X962387Y511142D02*
X962398Y512047D01*
X962430Y512951D01*
X962484Y513855D01*
X962560Y514756D01*
X962657Y515656D01*
X962775Y516553D01*
X962915Y517447D01*
X963076Y518338D01*
X963259Y519224D01*
X963462Y520106D01*
X963687Y520983D01*
X963932Y521854D01*
X964198Y522719D01*
X964485Y523577D01*
X964792Y524428D01*
X965119Y525272D01*
X965466Y526108D01*
X965833Y526935D01*
X966220Y527753D01*
X966219Y527753D02*
X966296Y527969D01*
X966379Y528184D01*
X966467Y528397D01*
X966559Y528607D01*
X966657Y528815D01*
X966760Y529021D01*
X966868Y529224D01*
X966981Y529425D01*
X967099Y529622D01*
X967221Y529817D01*
X967348Y530009D01*
X967480Y530197D01*
X967616Y530382D01*
X967757Y530564D01*
X967902Y530743D01*
X968052Y530917D01*
X968205Y531089D01*
X968363Y531256D01*
X968525Y531419D01*
X968691Y531579D01*
X968860Y531734D01*
X969033Y531885D01*
X969210Y532032D01*
X969391Y532175D01*
X969575Y532313D01*
X969762Y532447D01*
X969952Y532576D01*
X970146Y532700D01*
X970342Y532820D01*
X970541Y532935D01*
X970743Y533045D01*
X970948Y533150D01*
X971155Y533250D01*
X971364Y533345D01*
X971576Y533435D01*
X971790Y533520D01*
X972006Y533599D01*
X972224Y533673D01*
X972443Y533742D01*
X972664Y533806D01*
X972887Y533864D01*
X973110Y533916D01*
X973336Y533964D01*
X973562Y534005D01*
X973789Y534041D01*
X974017Y534072D01*
X974245Y534097D01*
X974475Y534117D01*
X974704Y534131D01*
X974934Y534139D01*
X975164Y534142D01*
X975394Y534139D01*
X975624Y534131D01*
X975853Y534117D01*
X976083Y534097D01*
X976311Y534072D01*
X976539Y534041D01*
X976766Y534005D01*
X976992Y533964D01*
X977218Y533916D01*
X977441Y533864D01*
X977664Y533806D01*
X977885Y533742D01*
X978104Y533673D01*
X978322Y533599D01*
X978538Y533520D01*
X978752Y533435D01*
X978964Y533345D01*
X979173Y533250D01*
X979380Y533150D01*
X979585Y533045D01*
X979787Y532935D01*
X979986Y532820D01*
X980182Y532700D01*
X980376Y532576D01*
X980566Y532447D01*
X980753Y532313D01*
X980937Y532175D01*
X981118Y532032D01*
X981295Y531885D01*
X981468Y531734D01*
X981637Y531579D01*
X981803Y531419D01*
X981965Y531256D01*
X982123Y531089D01*
X982276Y530917D01*
X982426Y530743D01*
X982571Y530564D01*
X982712Y530382D01*
X982848Y530197D01*
X982980Y530009D01*
X983107Y529817D01*
X983229Y529622D01*
X983347Y529425D01*
X983460Y529224D01*
X983568Y529021D01*
X983671Y528815D01*
X983769Y528607D01*
X983861Y528397D01*
X983949Y528184D01*
X984032Y527969D01*
X984109Y527753D01*
X984108Y527753D02*
X984495Y526935D01*
X984862Y526108D01*
X985209Y525272D01*
X985536Y524428D01*
X985843Y523577D01*
X986130Y522719D01*
X986396Y521854D01*
X986641Y520983D01*
X986866Y520106D01*
X987069Y519224D01*
X987252Y518338D01*
X987413Y517447D01*
X987553Y516553D01*
X987671Y515656D01*
X987768Y514756D01*
X987844Y513855D01*
X987898Y512951D01*
X987930Y512047D01*
X987941Y511142D01*
X962387Y511142D02*
X962398Y510237D01*
X962430Y509333D01*
X962484Y508429D01*
X962560Y507528D01*
X962657Y506628D01*
X962775Y505731D01*
X962915Y504837D01*
X963076Y503946D01*
X963259Y503060D01*
X963462Y502178D01*
X963687Y501301D01*
X963932Y500430D01*
X964198Y499565D01*
X964485Y498707D01*
X964792Y497856D01*
X965119Y497012D01*
X965466Y496176D01*
X965833Y495349D01*
X966220Y494531D01*
X966219Y494530D02*
X966296Y494313D01*
X966379Y494099D01*
X966467Y493886D01*
X966559Y493676D01*
X966657Y493468D01*
X966760Y493262D01*
X966868Y493059D01*
X966981Y492858D01*
X967099Y492661D01*
X967221Y492466D01*
X967348Y492274D01*
X967480Y492086D01*
X967616Y491901D01*
X967757Y491719D01*
X967902Y491540D01*
X968052Y491366D01*
X968205Y491194D01*
X968363Y491027D01*
X968525Y490864D01*
X968691Y490704D01*
X968860Y490549D01*
X969034Y490397D01*
X969210Y490251D01*
X969391Y490108D01*
X969575Y489970D01*
X969762Y489836D01*
X969952Y489707D01*
X970146Y489583D01*
X970342Y489463D01*
X970541Y489348D01*
X970743Y489238D01*
X970948Y489133D01*
X971155Y489033D01*
X971364Y488938D01*
X971576Y488848D01*
X971790Y488763D01*
X972006Y488684D01*
X972224Y488610D01*
X972443Y488541D01*
X972664Y488477D01*
X972887Y488419D01*
X973110Y488367D01*
X973336Y488319D01*
X973562Y488278D01*
X973789Y488242D01*
X974017Y488211D01*
X974245Y488186D01*
X974475Y488166D01*
X974704Y488152D01*
X974934Y488144D01*
X975164Y488141D01*
X984109Y494531D02*
X984496Y495349D01*
X984863Y496176D01*
X985210Y497012D01*
X985537Y497856D01*
X985844Y498707D01*
X986131Y499565D01*
X986397Y500430D01*
X986642Y501301D01*
X986867Y502178D01*
X987070Y503060D01*
X987253Y503946D01*
X987414Y504837D01*
X987554Y505731D01*
X987672Y506628D01*
X987769Y507528D01*
X987845Y508429D01*
X987899Y509333D01*
X987931Y510237D01*
X987942Y511142D01*
X984109Y494530D02*
X984032Y494313D01*
X983949Y494099D01*
X983861Y493886D01*
X983769Y493676D01*
X983671Y493468D01*
X983568Y493262D01*
X983460Y493059D01*
X983347Y492858D01*
X983229Y492661D01*
X983107Y492466D01*
X982980Y492274D01*
X982848Y492086D01*
X982712Y491901D01*
X982571Y491719D01*
X982426Y491540D01*
X982276Y491366D01*
X982123Y491194D01*
X981965Y491027D01*
X981803Y490864D01*
X981637Y490704D01*
X981468Y490549D01*
X981295Y490398D01*
X981118Y490251D01*
X980937Y490108D01*
X980753Y489970D01*
X980566Y489836D01*
X980376Y489707D01*
X980182Y489583D01*
X979986Y489463D01*
X979787Y489348D01*
X979585Y489238D01*
X979380Y489133D01*
X979173Y489033D01*
X978964Y488938D01*
X978752Y488848D01*
X978538Y488763D01*
X978322Y488684D01*
X978104Y488610D01*
X977885Y488541D01*
X977664Y488477D01*
X977441Y488419D01*
X977218Y488367D01*
X976992Y488319D01*
X976766Y488278D01*
X976539Y488242D01*
X976311Y488211D01*
X976083Y488186D01*
X975853Y488166D01*
X975624Y488152D01*
X975394Y488144D01*
X975164Y488141D01*
X964942Y498364D02*
X985386Y523919D01*
X587444Y1052000D02*
X577222Y1052000D01*
X576975Y1052003D01*
X576728Y1052012D01*
X576482Y1052027D01*
X576235Y1052048D01*
X575990Y1052075D01*
X575745Y1052107D01*
X575501Y1052146D01*
X575258Y1052190D01*
X575016Y1052241D01*
X574776Y1052297D01*
X574537Y1052359D01*
X574299Y1052427D01*
X574063Y1052500D01*
X573829Y1052579D01*
X573597Y1052664D01*
X573367Y1052755D01*
X573140Y1052851D01*
X572914Y1052952D01*
X572692Y1053059D01*
X572472Y1053171D01*
X572254Y1053288D01*
X572040Y1053411D01*
X571828Y1053539D01*
X571620Y1053672D01*
X571415Y1053809D01*
X571214Y1053952D01*
X571016Y1054100D01*
X570821Y1054252D01*
X570630Y1054409D01*
X570444Y1054571D01*
X570261Y1054737D01*
X570082Y1054907D01*
X569907Y1055082D01*
X569737Y1055261D01*
X569571Y1055444D01*
X569409Y1055630D01*
X569252Y1055821D01*
X569100Y1056016D01*
X568952Y1056214D01*
X568809Y1056415D01*
X568672Y1056620D01*
X568539Y1056828D01*
X568411Y1057040D01*
X568288Y1057254D01*
X568171Y1057472D01*
X568059Y1057692D01*
X567952Y1057914D01*
X567851Y1058140D01*
X567755Y1058367D01*
X567664Y1058597D01*
X567579Y1058829D01*
X567500Y1059063D01*
X567427Y1059299D01*
X567359Y1059537D01*
X567297Y1059776D01*
X567241Y1060016D01*
X567190Y1060258D01*
X567146Y1060501D01*
X567107Y1060745D01*
X567075Y1060990D01*
X567048Y1061235D01*
X567027Y1061482D01*
X567012Y1061728D01*
X567003Y1061975D01*
X567000Y1062222D01*
X567000Y1087778D01*
X567003Y1088029D01*
X567012Y1088280D01*
X567028Y1088530D01*
X567049Y1088780D01*
X567077Y1089029D01*
X567111Y1089278D01*
X567150Y1089526D01*
X567196Y1089772D01*
X567248Y1090018D01*
X567306Y1090262D01*
X567370Y1090504D01*
X567440Y1090745D01*
X567516Y1090984D01*
X567598Y1091222D01*
X567685Y1091457D01*
X567778Y1091690D01*
X567877Y1091920D01*
X567981Y1092148D01*
X568091Y1092374D01*
X568207Y1092597D01*
X568328Y1092816D01*
X568454Y1093033D01*
X568586Y1093247D01*
X568723Y1093457D01*
X568865Y1093664D01*
X569012Y1093867D01*
X569163Y1094067D01*
X569320Y1094263D01*
X569482Y1094455D01*
X569648Y1094643D01*
X569819Y1094826D01*
X569994Y1095006D01*
X570173Y1095181D01*
X570357Y1095352D01*
X570545Y1095518D01*
X570737Y1095680D01*
X570933Y1095836D01*
X571133Y1095988D01*
X571336Y1096135D01*
X571543Y1096277D01*
X571753Y1096414D01*
X571967Y1096546D01*
X572184Y1096672D01*
X572403Y1096793D01*
X572626Y1096908D01*
X572851Y1097019D01*
X573080Y1097123D01*
X573310Y1097222D01*
X573543Y1097315D01*
X573778Y1097402D01*
X574015Y1097484D01*
X574255Y1097560D01*
X574496Y1097630D01*
X574738Y1097694D01*
X574982Y1097752D01*
X575228Y1097804D01*
X575474Y1097849D01*
X575722Y1097889D01*
X575971Y1097923D01*
X576220Y1097951D01*
X576470Y1097972D01*
X576720Y1097988D01*
X576971Y1097997D01*
X577222Y1098000D01*
X587444Y1098000D01*
X604631Y1087778D02*
X617408Y1098000D01*
X617408Y1052000D01*
X604631Y1052000D02*
X630186Y1052000D01*
X649631Y1087778D02*
X662408Y1098000D01*
X662408Y1052000D01*
X649631Y1052000D02*
X675186Y1052000D01*
M02*
