G04 EAGLE Gerber X2 export*
%TF.Part,Single*%
%TF.FileFunction,Soldermask,Bot*%
%TF.FilePolarity,Negative*%
%TF.GenerationSoftware,Autodesk,EAGLE,9.0.1*%
%TF.CreationDate,2018-11-30T19:34:43Z*%
G75*
%MOIN*%
%FSLAX36Y36*%
%LPD*%
%AMOC8*
5,1,8,0,0,1.08239X$1,22.5*%
G01*
%ADD10C,0.130047*%
%ADD11R,0.094000X0.094000*%
%ADD12C,0.094000*%
%ADD13R,0.031622X0.070992*%
%ADD14R,0.059181X0.067055*%
%ADD15R,0.070992X0.031622*%
%ADD16R,0.073000X0.025000*%
%ADD17C,0.060000*%
%ADD18C,0.082000*%
%ADD19C,0.074000*%
%ADD20P,0.076850X8X292.500000*%
%ADD21P,0.076850X8X22.500000*%
%ADD22R,0.055244X0.055244*%
%ADD23R,0.059181X0.070992*%
%ADD24C,0.070992*%


D10*
X2310000Y2050000D03*
X90000Y2040000D03*
X2310000Y90000D03*
X90000Y90000D03*
D11*
X671000Y1765000D03*
D12*
X811000Y1765000D03*
D11*
X324000Y1470000D03*
D12*
X464000Y1470000D03*
D11*
X914000Y1470000D03*
D12*
X1054000Y1470000D03*
D11*
X579000Y1245000D03*
D12*
X719000Y1245000D03*
D11*
X244000Y1020000D03*
D12*
X384000Y1020000D03*
D11*
X834000Y1020000D03*
D12*
X974000Y1020000D03*
D11*
X487000Y725000D03*
D12*
X627000Y725000D03*
D13*
X1865000Y1632362D03*
X1865000Y1427638D03*
X1815000Y1632362D03*
X1915000Y1632362D03*
X1965000Y1632362D03*
X1815000Y1427638D03*
X1915000Y1427638D03*
X1965000Y1427638D03*
D14*
X176535Y810000D03*
X243465Y810000D03*
D11*
X1871000Y1765000D03*
D12*
X2011000Y1765000D03*
D11*
X1524000Y1470000D03*
D12*
X1664000Y1470000D03*
D11*
X2114000Y1470000D03*
D12*
X2254000Y1470000D03*
D11*
X1779000Y1245000D03*
D12*
X1919000Y1245000D03*
D11*
X1444000Y1020000D03*
D12*
X1584000Y1020000D03*
D11*
X2034000Y1020000D03*
D12*
X2174000Y1020000D03*
D11*
X1687000Y725000D03*
D12*
X1827000Y725000D03*
D13*
X945000Y682362D03*
X945000Y477638D03*
X895000Y682362D03*
X995000Y682362D03*
X1045000Y682362D03*
X895000Y477638D03*
X995000Y477638D03*
X1045000Y477638D03*
D15*
X1472362Y1915000D03*
X1267638Y1915000D03*
X1472362Y1965000D03*
X1472362Y1865000D03*
X1472362Y1815000D03*
X1267638Y1965000D03*
X1267638Y1865000D03*
X1267638Y1815000D03*
D13*
X1855000Y502362D03*
X1855000Y297638D03*
X1805000Y502362D03*
X1905000Y502362D03*
X1955000Y502362D03*
X1805000Y297638D03*
X1905000Y297638D03*
X1955000Y297638D03*
D16*
X373000Y716000D03*
X373000Y691000D03*
X373000Y665000D03*
X373000Y640000D03*
X373000Y614000D03*
X373000Y588000D03*
X373000Y563000D03*
X373000Y537000D03*
X373000Y512000D03*
X373000Y486000D03*
X373000Y460000D03*
X373000Y435000D03*
X373000Y409000D03*
X373000Y384000D03*
X87000Y384000D03*
X87000Y409000D03*
X87000Y435000D03*
X87000Y460000D03*
X87000Y486000D03*
X87000Y512000D03*
X87000Y537000D03*
X87000Y563000D03*
X87000Y588000D03*
X87000Y614000D03*
X87000Y640000D03*
X87000Y665000D03*
X87000Y691000D03*
X87000Y716000D03*
D17*
X730000Y96000D02*
X730000Y44000D01*
X630000Y44000D02*
X630000Y96000D01*
X530000Y96000D02*
X530000Y44000D01*
X430000Y44000D02*
X430000Y96000D01*
X330000Y96000D02*
X330000Y44000D01*
D18*
X72000Y1171000D03*
X328000Y1171000D03*
X72000Y1349000D03*
X328000Y1349000D03*
D19*
X1310000Y180000D03*
X1410000Y180000D03*
X1510000Y180000D03*
D20*
X130000Y1730000D03*
X130000Y1530000D03*
D21*
X1634488Y2070000D03*
X1834488Y2070000D03*
D19*
X1010000Y180000D03*
X1110000Y180000D03*
X1210000Y180000D03*
X1260000Y880000D03*
X1260000Y780000D03*
X1260000Y680000D03*
D22*
X781339Y210000D03*
X698661Y210000D03*
X781339Y280000D03*
X698661Y280000D03*
X781339Y350000D03*
X698661Y350000D03*
D23*
X617402Y210000D03*
X542598Y210000D03*
X617402Y290000D03*
X542598Y290000D03*
X617402Y370000D03*
X542598Y370000D03*
D13*
X1005000Y1842362D03*
X1005000Y1637638D03*
X955000Y1842362D03*
X1055000Y1842362D03*
X1105000Y1842362D03*
X955000Y1637638D03*
X1055000Y1637638D03*
X1105000Y1637638D03*
X575000Y1112362D03*
X575000Y907638D03*
X525000Y1112362D03*
X625000Y1112362D03*
X675000Y1112362D03*
X525000Y907638D03*
X625000Y907638D03*
X675000Y907638D03*
X675000Y1622362D03*
X675000Y1417638D03*
X625000Y1622362D03*
X725000Y1622362D03*
X775000Y1622362D03*
X625000Y1417638D03*
X725000Y1417638D03*
X775000Y1417638D03*
X1775000Y1092362D03*
X1775000Y887638D03*
X1725000Y1092362D03*
X1825000Y1092362D03*
X1875000Y1092362D03*
X1725000Y887638D03*
X1825000Y887638D03*
X1875000Y887638D03*
D24*
X929134Y62992D03*
M02*
